<?xml version="1.0" encoding="UTF-8" standalone="no"?>
<!DOCTYPE svg PUBLIC "-//W3C//DTD SVG 1.1//EN" "http://www.w3.org/Graphics/SVG/1.1/DTD/svg11.dtd">
<svg width="100%" height="100%" viewBox="0 0 870 340" version="1.1" xmlns="http://www.w3.org/2000/svg" xmlns:xlink="http://www.w3.org/1999/xlink" xml:space="preserve" xmlns:serif="http://www.serif.com/" style="fill-rule:evenodd;clip-rule:evenodd;stroke-linejoin:round;stroke-miterlimit:2;">
    <g transform="matrix(1,0,0,1.00094,-165,-165.476)">
        <path d="M165.4,422.7L165.9,340.5L191.5,340C216.4,339.5 217,339.5 217.5,341.5C218,343.8 221.3,362.4 222.9,372C223.5,375.5 224.2,379.6 224.4,381C225.7,387.6 226.4,391.3 229.4,410C229.6,411.3 229.8,413.2 229.9,414.2C230,418.1 231.8,415.6 232.4,410.7C232.8,407.8 233.5,403.4 234,401C234.5,398.5 236.3,389.3 237.9,380.5C239.5,371.7 241.8,359 243.1,352.2L245.3,340L269.7,339.7C283,339.6 294.4,339.6 295,339.8C295.6,340 296,368.9 296,422.5L296,505L262,505L261.9,451.2C261.8,404.5 261.6,398.2 260.5,403.5C259.8,406.8 258.9,411.5 258.5,414C258,417.9 257.3,421.7 254.5,436.5C254.2,438.1 253.5,442.4 252.9,446C252.3,449.5 251,456.7 250,462C248.9,467.2 247.4,475.7 246.5,481C245,489.4 243.8,495.6 242.4,502.7C241.9,504.9 241.5,505 230.5,505C219.4,505 219,504.9 218.5,502.7C218,500.4 216.8,493.6 216.3,491C216.2,490.1 215.1,484.3 214,478C210.8,460.4 208.1,444.7 205.9,432C204.9,425.6 203.7,419.3 203.4,418C203.1,416.6 202.4,412.4 201.8,408.6C199.5,392.8 199.1,399.2 199,451.2L199,505L165,505L165.4,422.7ZM399.4,502.7C399.1,501.5 399,464.5 399.2,420.5L399.5,340.5L430.5,340.5C460.7,340.5 461.6,340.5 467.7,342.8C482.5,348.5 487.8,357.6 495,389.5C495.6,392.2 496.3,406.4 496.6,421C497.1,445.1 496.7,453 494.4,466.5C493.5,471.8 488,486 486.9,486C486.4,486 486,486.6 486,487.4C486,489.5 477.9,497.3 473.5,499.4C465.3,503.3 459.7,503.9 429.5,504.5L400,505L399.4,502.7ZM505.5,504.3C504.9,503.5 504.8,340.5 505.3,339.9C505.6,339.6 514.1,339.6 524.4,339.7L543,340L543,505L524.5,505C514.3,505 505.7,504.7 505.5,504.3ZM308.5,504.3C308.2,503.9 308,466.8 308,421.8L308,339.9L350.2,340.2L392.5,340.5L392.5,369.5L368.2,369.7L344,370L344,407L384,407L384,437L363.9,436.7L343.9,436.5L343.9,455.2L344,473.9L368.2,474.2L392.5,474.5L392.7,487.7C392.9,495.4 392.6,501.8 392,503C391,504.9 389.9,505 350,505C327.4,505 308.7,504.7 308.5,504.3ZM568,504.4C553.5,504 552,503.7 552,502.1C552,501.2 553.1,495 554.5,488.4C555.9,481.8 557.5,474.4 558,472C558.4,469.5 560,462.1 561.4,455.5C562.9,448.9 564.9,439.2 565.9,434C567.9,424.2 576.5,382.7 580,366C581.1,360.7 582.3,355.3 582.5,354C583.3,350.1 585,340.6 585,340.3C585,340.1 593.5,340 604,340C614.4,340 623,340.2 623,340.4C623,340.8 623.9,345.8 627.3,364C627.6,365.3 629.7,375.5 631.9,386.5C634.2,397.5 636.7,409.8 637.5,414C638.2,418.1 640.3,428.2 642,436.5C643.8,444.7 646,456 647.1,461.5C648.2,467 649.4,473.5 649.9,476C650.4,478.4 651.4,483.2 652,486.5C652.6,489.8 653.3,493.6 653.6,495C653.9,496.3 654.2,499 654.3,501L654.5,504.5L639,504.7C630.4,504.8 622.7,504.7 621.8,504.4C620.7,504 619.9,501.7 619.1,496.2C618.4,491.9 617.4,485.6 616.8,482.2L615.7,476L592.3,476L591,484.7C590,492.3 589.3,496.1 588.4,499.2C588.3,499.6 588.1,501.1 588.1,502.5C588,504.2 587.4,505 586,505C584.9,505 576.8,504.7 568,504.4ZM438,475.4C437.3,475 437,455.8 437,421L437,367.2L440.5,366.8C445,366.2 450.9,368.8 453.8,372.5C459,379.1 459.5,383.4 459.5,424.5C459.5,461.3 459.4,462.6 457.3,467.1C455.9,470.1 454,472.4 452,473.4C448.8,475.1 439.6,476.3 438,475.4ZM596.6,447.7C597.6,439.7 597.6,439.7 598.3,435.5C599.9,426.7 601.7,414.6 602.5,407.6C603.5,399.4 604.5,397.8 605.3,403.5C605.6,406.2 607.1,416.1 608.5,425.5C609.9,434.8 611.3,444.8 611.5,447.7L612,453L596,453L596.6,447.7ZM671.7,419.1C663,415.9 658.9,411.1 656.4,401.8C654.7,395.3 654.3,367.6 655.8,360.9C659.3,345.8 666,340 679.9,340C694.1,340 700.9,347.1 702.2,363.7L702.7,369L686.1,369L685.5,364.2C684.7,357.9 682.9,354.5 680.1,354.1C676.8,353.7 674.3,356.4 673.5,361.1C673.2,363.3 672.9,372.2 672.9,380.9C672.9,399.8 674.2,405 679,405C683.1,405 684.9,401.6 685.6,393L686.2,386L694.5,386C699.1,386 703,386.3 703.3,386.7C704.4,388.8 701.6,403.9 699.2,409C696.9,413.5 695.6,414.8 691.7,416.7C686.5,419.1 675.4,420.5 671.7,419.1ZM748,418L711,418L711,407L748,407L748,418ZM719.7,397.4C711,393.2 707.9,386 708,369.7C708,357.3 708.8,352.9 712.2,347.9C716.5,341.6 719.1,340.5 728.9,340.5C736.9,340.5 737.9,340.7 741.3,343.3C743.3,344.8 746,348 747.2,350.3C749.2,354.1 749.5,355.8 749.5,369.5C749.5,382.9 749.2,384.9 747.3,388.5C746.1,390.7 744.3,393.2 743.3,394.2C738.1,398.8 726.1,400.5 719.7,397.4ZM724.9,384.2C724.2,382.6 723.9,375.9 724.1,367.7C724.4,356.7 724.8,353.7 726.1,352.4C728.2,350.3 731.3,351.2 732.8,354.5C734.2,357.6 734.3,380.8 733,384.4C731.5,388.1 726.4,388 724.9,384.2ZM946.2,247.9L946.5,165.9L989.6,165.7L1032.8,165.5L1032.6,180.5L1032.5,195.5L1008.2,195.7L984,196L984,233L1026,233L1025.7,247.7L1025.5,262.5L1006,262.7C995.2,262.8 985.9,262.9 985.2,262.9C984.2,262.9 984,267 984.2,281.2L984.5,299.5L1009.7,299.7L1035,300L1035,330L946,330L946.2,247.9ZM652.366,165.321C659,165.343 671.187,167.972 675.9,170.6C683.7,174.9 687,179 692.1,190.5C694,194.9 696.2,203 698.2,213C699.9,221.8 700.3,228.3 700.6,254.4C700.8,271.4 700.6,285.6 700.2,285.9C699.7,286.2 698.8,289.4 698.1,293C696.2,302.7 690,314.7 684.2,320.2C680.3,323.8 677.5,325.3 671.1,327.4C663.1,329.9 662.5,330 633,330L603,330L603,166L624.7,165.8C636.7,165.8 648.3,165.6 650.5,165.4C651.03,165.346 651.627,165.32 652.281,165.32L652.366,165.321ZM938.5,166L938.7,181L939,196L907,196L907,330L870,330L870,196L837.9,196L838.5,165.8L938.5,166ZM165.9,329.5L165.9,165.8L182.4,165.9L201,165.9C202.9,165.9 203,166.6 203,248L203,330L184.5,330C174.3,330 165.9,329.7 165.9,329.5ZM710,248C710,170.6 710,165.9 711.7,165.9C712.7,165.8 721.1,165.8 730.5,165.7L747.5,165.6L747.2,247.3L747,329L710,330L710,248ZM505,248C505,202.8 505.3,165.9 505.7,165.9C506.1,165.9 526.1,165.8 550.2,165.7L594,165.5L594,196L568.2,195.9L542.5,195.9L542.7,214.4L543,233L585,233L585,263L563.7,262.9L542.5,262.9L542.9,299.5L568.4,299.7L594,300L594,330L505,330L505,248ZM359.9,329.2C359.7,323 360.1,166.4 360.4,166.2C360.6,165.9 372.3,165.7 386.3,165.6L411.8,165.5L412.5,170.5C412.9,173.2 413.4,176.4 413.6,177.5C413.8,178.6 414.9,184.4 416,190.5C417,196.5 418.8,206.6 420,213C421.1,219.3 422.6,228.4 423.4,233.2C424.1,238 424.9,242.2 425.2,242.6C425.6,242.9 426.1,241.4 426.4,239.3C427.7,231.2 431.2,211.5 435.9,186.5C436.9,181 438.1,174.7 438.4,172.5C438.8,170.3 439.3,167.8 439.5,167C439.9,165.7 443.5,165.5 465.2,165.7L490.5,165.9L490.5,329.5L473.7,329.7L457,330L457,276.9C457,247.7 456.6,224.1 456.1,224.4C455.6,224.6 454.7,229.1 454,234.2C453.3,239.3 452.4,245 451.9,247C451.4,248.9 450.8,252 450.4,254C450.1,255.9 449.4,259.7 448.9,262.5C448.4,265.2 447.7,268.8 447.5,270.5C447,273 445,284 443.5,291.5C443.3,292.6 442.4,297.7 441.5,303C439.9,312.9 439.4,315.1 438.7,318.5C438.4,319.6 437.9,322.6 437.5,325.2L436.8,330L424.9,330C418.3,330 412.9,329.6 412.9,329.2C412.8,328.8 412.6,327.8 412.5,327C412.3,326.1 411.6,322.3 411,318.5C410.4,314.6 409.6,310.3 409.3,309C408.8,306.4 406.5,293.7 405.6,288.5C404.7,283.2 401.9,267.6 401.3,265C401.1,263.6 399.8,256.2 398.5,248.5C395.5,230.9 394.1,223.7 393.5,223.1C393.2,222.9 393.2,246.8 393.5,276.3L394,330L377,330C367.6,330 359.9,329.6 359.9,329.2ZM241.6,165.6C269.1,165.8 268.9,165.8 269,171C269,172.3 269.7,177.3 270.5,182C271.4,186.6 272.7,194.1 273.5,198.5C274.2,202.9 276,213.1 277.4,221.2C278.8,229.3 280,237.5 280,239.4C280,241.4 280.4,243 280.9,243C281.8,243 282.4,240.7 283.5,233C283.8,230.5 284.9,224.2 285.9,219C288,208.6 290.1,197.2 292.5,184C294.8,170.8 295.6,166.9 296.3,166.3C296.6,165.9 307.8,165.7 321.1,165.8C334.4,165.9 345.7,165.9 346.1,166C346.6,166 347,202.8 347,248L347,330L313,330L313,276.8C313,247.5 312.7,223.9 312.4,224.2C311.6,224.9 308.2,242.3 307.4,249.5C307.1,252.8 306.4,257 305.9,259C305.2,261.8 299.1,294.1 297.4,304C296.2,310.8 294.7,318.7 294.2,321C293.9,322.3 293.8,324.5 293.9,325.8C294,327.1 293.5,328.6 292.8,329.1C292.1,329.5 286.4,329.9 280.3,329.9L269.2,330L268.1,324.2C267.4,321 266.3,314.6 265.5,310C264.8,305.3 262.9,294.9 261.5,287C260,279 258.2,268.9 257.5,264.5C256.7,260.1 255.9,255.1 255.6,253.5C255.3,251.8 254.1,244.8 253,238C251.8,231.1 250.7,225.3 250.4,225.1C250.2,224.8 250,248.3 250,277.3L250,330L216,330L216,165.5L241.6,165.6ZM755,328C755,326.9 755.7,323 756.5,319.3C757.4,315.5 758.7,309.1 759.5,305C760.3,300.8 762.7,288.9 764.9,278.5C767.2,268 769.2,258.3 769.5,257C769.8,255.6 770.7,250.9 771.5,246.5C772.3,242.1 773.4,236.9 773.9,235C774.4,233 775.1,230.1 775.4,228.5C775.6,226.8 777.7,216.7 780,206C782.3,195.2 785,181.8 786.2,176.2L788.3,165.9L805.5,166C815,166 823.4,165.7 824.2,165.4C825.2,165 826.2,168.2 828.3,179.2C829.8,187 831.7,196.2 832.5,199.5C833.2,202.8 835.5,214 837.5,224.5C839.5,234.9 841.8,246.4 842.6,250C843.5,253.5 844.5,258.7 845,261.5C845.4,264.2 848.5,280 851.8,296.6C855.2,313.1 858,327.4 858,328.3C858,329.8 856.2,330 840.7,329.7L823.5,329.5L822.8,325.5C822.4,323.3 821.6,318.5 821,315C820.5,311.4 819.7,306.8 819.4,304.7L818.7,301L807.4,301C799.8,301 795.8,301.3 795.3,302.1C794.9,302.8 794.7,305.5 794.8,308.1C794.9,310.8 794.6,313 794.1,313C793.3,313 792.8,315.1 791.4,326.2L791,330L773,330C755.8,330 755,329.9 755,328ZM641,192L643.2,192C654.2,192.1 660.1,198.1 662.8,212C663.1,213.9 663.5,231 663.5,250C663.5,287.1 662.9,292.1 658.4,297.2C656.2,299.6 655.1,300 648.5,300.5L641,301L641,192ZM799,277.6C799,277.2 801.9,257 802.3,254.7C802.4,253.8 802.9,252.7 803.3,252.3C803.6,251.9 804,250.3 804,248.6C804,244.2 806,228.8 806.9,226.5C807.5,224.9 807.8,225.4 808.3,229C809.2,235.3 811.8,253.8 812.5,258C816,280 816.6,278 807,278C802.6,278 799,277.8 799,277.6Z"/>
    </g>
</svg>
