<?xml version="1.0" encoding="UTF-8" standalone="no"?>
<!DOCTYPE svg PUBLIC "-//W3C//DTD SVG 1.1//EN" "http://www.w3.org/Graphics/SVG/1.1/DTD/svg11.dtd">
<svg width="100%" height="100%" viewBox="0 0 1016 123" version="1.1" xmlns="http://www.w3.org/2000/svg" xmlns:xlink="http://www.w3.org/1999/xlink" xml:space="preserve" xmlns:serif="http://www.serif.com/" style="fill-rule:evenodd;clip-rule:evenodd;stroke-linejoin:round;stroke-miterlimit:2;">
    <g id="path1104" transform="matrix(0.999428,0,0,1.00292,-3.70692,-3.69)">
        <path d="M398.595,92.89C396.26,92.89 394.235,93.381 392.524,94.363C391.838,94.734 391.049,95.328 390.157,96.146L390.157,93.537L386.206,93.537L386.206,126.321L390.398,125.137L390.398,115.019C391.976,115.794 394.05,116.182 396.606,116.182C400.717,116.182 403.823,114.922 405.919,112.403C407.709,110.261 408.603,107.412 408.603,103.855C408.603,100.73 407.924,98.234 406.566,96.373C404.855,94.052 402.199,92.89 398.595,92.89ZM493.436,92.89C488.926,92.89 485.618,94.225 483.518,96.889C481.718,99.168 480.82,102.1 480.82,105.686C480.82,108.711 481.497,111.109 482.85,112.899C484.49,115.084 487.1,116.182 490.69,116.182C493.801,116.182 496.464,115.145 498.681,113.078L498.681,114.152C498.681,116.933 498.366,118.917 497.745,120.092C496.82,121.863 494.696,122.742 491.365,122.742C488.785,122.742 486.411,122.348 484.255,121.544L483.029,125.006C485.679,125.749 488.509,126.114 491.516,126.114C493.913,126.114 495.87,125.822 497.387,125.227C499.812,124.301 501.366,122.764 502.033,120.622C502.597,118.803 502.88,115.779 502.88,111.536L502.88,94.294C499.267,93.354 496.115,92.89 493.436,92.89ZM910.555,92.89C906.044,92.89 902.744,94.225 900.643,96.889C898.844,99.168 897.938,102.1 897.938,105.686C897.938,108.711 898.615,111.109 899.969,112.899C901.609,115.084 904.226,116.182 907.815,116.182C910.926,116.182 913.589,115.145 915.807,113.078L915.807,114.152C915.807,116.933 915.489,118.917 914.864,120.092C913.943,121.863 911.815,122.742 908.483,122.742C905.903,122.742 903.537,122.348 901.38,121.544L900.155,125.006C902.805,125.749 905.629,126.114 908.641,126.114C911.033,126.114 912.993,125.822 914.506,125.227C916.935,124.301 918.487,122.764 919.159,120.622C919.722,118.803 919.998,115.779 919.998,111.536L919.998,94.294C916.385,93.354 913.233,92.89 910.555,92.89ZM683.291,111.44L681.935,120.408L684.613,120.408L687.235,111.44L683.291,111.44ZM75.41,7.011L75.41,71.656C75.41,86.758 63.126,99.036 48.029,99.036C35.633,99.036 25.079,90.874 21.743,79.386L3.709,84.589C6.073,92.704 10.647,100.062 17.014,105.837C25.519,113.562 36.531,117.814 48.029,117.814C73.478,117.814 93.749,97.123 94.186,71.656L94.186,7.011L75.41,7.011ZM793.241,92.89C790.708,92.89 788.398,93.218 786.316,93.874C785.973,93.991 785.026,94.336 783.48,94.9L784.733,98.334C787.496,96.953 790.192,96.256 792.814,96.256C795.046,96.256 796.582,96.657 797.419,97.447C798.086,98.071 798.423,99.082 798.423,100.482L798.423,101.487C796.68,101.561 795.383,101.624 794.528,101.667C790.275,101.952 787.246,102.591 785.442,103.587C783.06,104.898 781.87,106.899 781.87,109.596C781.87,113.985 784.581,116.183 789.999,116.183C794.105,116.183 797.029,115.167 798.754,113.127L798.754,115.536L802.684,115.536L802.684,101.915C802.684,100.618 802.67,99.73 802.643,99.251C802.535,97.912 802.25,96.86 801.789,96.085C800.539,93.956 797.69,92.891 793.241,92.891L793.241,92.89ZM588.877,92.89C584.977,92.89 582.051,94.005 580.101,96.242C578.287,98.338 577.375,101.158 577.375,104.701C577.375,108.423 578.414,111.263 580.5,113.209C582.614,115.192 585.803,116.182 590.06,116.182C593.514,116.182 596.635,115.525 599.435,114.214L597.921,110.91C595.614,112.174 593.236,112.81 590.797,112.81C588.682,112.81 587.002,112.552 585.752,112.046C584.497,111.557 583.506,110.728 582.778,109.567C582.064,108.435 581.691,107.085 581.663,105.507L599.779,105.507C599.85,104.614 599.883,103.935 599.883,103.469C599.883,101.12 599.413,99.134 598.478,97.509C596.674,94.431 593.477,92.89 588.877,92.89ZM711.525,92.89L711.525,92.89L711.525,92.89L711.525,92.89C707.625,92.89 704.699,94.005 702.749,96.242C700.936,98.338 700.024,101.158 700.024,104.701C700.024,108.423 701.069,111.263 703.155,113.209C705.27,115.192 708.452,116.182 712.709,116.182C716.158,116.182 719.29,115.525 722.091,114.214L720.57,110.91C718.258,112.174 715.884,112.81 713.446,112.81C711.331,112.81 709.65,112.552 708.4,112.046C707.146,111.557 706.155,110.728 705.427,109.567C704.713,108.435 704.34,107.085 704.312,105.507L722.421,105.507C722.496,104.614 722.538,103.935 722.538,103.469C722.538,101.12 722.067,99.134 721.127,97.509C719.327,94.431 716.125,92.89 711.525,92.89ZM666.049,92.89L666.049,92.89L666.049,92.89L666.049,92.89C662.149,92.89 659.225,94.005 657.28,96.242C655.462,98.338 654.554,101.158 654.554,104.701C654.554,108.423 655.593,111.263 657.679,113.209C659.794,115.192 662.976,116.182 667.233,116.182C670.687,116.182 673.819,115.525 676.614,114.214L675.093,110.91C672.786,112.174 670.408,112.81 667.969,112.81C665.855,112.81 664.174,112.552 662.924,112.046C661.674,111.557 660.686,110.728 659.958,109.567C659.243,108.435 658.864,107.085 658.836,105.507L676.952,105.507C677.022,104.614 677.062,103.935 677.062,103.469C677.062,101.12 676.586,99.134 675.651,97.509C673.846,94.431 670.649,92.89 666.049,92.89ZM986.165,92.89L986.165,92.89L986.165,92.89L986.165,92.89C982.265,92.89 979.334,94.005 977.389,96.242C975.571,98.338 974.663,101.158 974.663,104.701C974.663,108.423 975.702,111.263 977.788,113.209C979.903,115.192 983.092,116.182 987.349,116.182C990.802,116.182 993.928,115.525 996.723,114.214L995.209,110.91C992.902,112.174 990.529,112.81 988.085,112.81C985.971,112.81 984.29,112.552 983.04,112.046C981.79,111.557 980.795,110.728 980.067,109.567C979.352,108.435 978.975,107.085 978.951,105.507L997.061,105.507C997.136,104.614 997.171,103.935 997.171,103.469C997.171,101.12 996.702,99.134 995.767,97.509C993.962,94.431 990.765,92.89 986.165,92.89ZM643.59,92.89C639.99,92.89 637.183,93.754 635.172,95.478C632.686,97.607 631.441,100.741 631.441,104.88C631.441,108.423 632.41,111.176 634.346,113.126C636.357,115.166 639.381,116.182 643.418,116.182C646.674,116.182 649.501,115.558 651.898,114.303L650.466,110.91C648.337,112.174 646.172,112.81 643.968,112.81C641.064,112.81 638.919,111.959 637.519,110.263C636.325,108.834 635.729,106.974 635.729,104.681C635.729,102.002 636.477,99.898 637.966,98.362C639.334,96.962 641.258,96.256 643.748,96.256C645.966,96.256 648.116,96.802 650.197,97.873L651.409,94.404C649.027,93.394 646.423,92.89 643.59,92.89ZM555.232,92.89C551.633,92.89 548.825,93.754 546.814,95.478C544.329,97.607 543.084,100.741 543.084,104.88C543.084,108.423 544.052,111.176 545.988,113.126C547.999,115.166 551.024,116.182 555.06,116.182C558.317,116.182 561.151,115.558 563.547,114.303L562.108,110.91C559.98,112.174 557.815,112.81 555.611,112.81C552.707,112.81 550.562,111.959 549.161,110.263C547.968,108.834 547.372,106.974 547.372,104.681C547.372,102.002 548.119,99.898 549.609,98.362C550.976,96.962 552.9,96.256 555.391,96.256C557.608,96.256 559.765,96.802 561.847,97.873L563.051,94.404C560.669,93.394 558.066,92.89 555.232,92.89ZM530.598,92.89C527.934,92.89 525.854,93.375 524.369,94.342C522.79,95.371 522.001,96.928 522.001,99.009C522.001,100.799 522.67,102.164 524.004,103.118C525.165,103.936 527.089,104.793 529.772,105.686C531.229,106.165 532.217,106.484 532.739,106.663C533.439,106.917 534.015,107.254 534.48,107.668C534.969,108.1 535.216,108.716 535.216,109.506C535.216,111.709 533.356,112.81 529.634,112.81C526.839,112.81 524.324,112.152 522.111,110.841L520.728,114.482C523.049,115.61 526.023,116.182 529.655,116.182C536.205,116.182 539.484,113.9 539.484,109.347C539.484,107.454 538.842,106.042 537.564,105.107C536.516,104.318 534.771,103.514 532.319,102.692L529.214,101.645C528.439,101.392 527.782,101.093 527.246,100.751C526.574,100.332 526.241,99.736 526.241,98.961C526.241,97.157 527.734,96.263 530.708,96.263C532.823,96.263 534.904,96.714 536.958,97.626L538.094,94.136C535.716,93.304 533.215,92.89 530.598,92.89ZM372.316,92.89C369.652,92.89 367.571,93.375 366.087,94.342C364.508,95.371 363.712,96.928 363.712,99.009C363.712,100.799 364.383,102.164 365.722,103.118C366.882,103.936 368.807,104.793 371.49,105.686C372.947,106.165 373.94,106.484 374.456,106.663C375.157,106.917 375.74,107.254 376.205,107.668C376.693,108.1 376.934,108.716 376.934,109.506C376.934,111.709 375.074,112.81 371.352,112.81C368.552,112.81 366.042,112.152 363.829,110.841L362.446,114.482C364.767,115.61 367.748,116.182 371.38,116.182C377.93,116.182 381.202,113.9 381.202,109.347C381.202,107.454 380.564,106.042 379.281,105.107C378.238,104.318 376.487,103.514 374.03,102.692L370.932,101.645C370.157,101.392 369.499,101.093 368.964,100.751C368.292,100.332 367.959,99.736 367.959,98.961C367.959,97.157 369.447,96.263 372.426,96.263C374.54,96.263 376.629,96.714 378.683,97.626L379.818,94.136C377.436,93.304 374.938,92.89 372.316,92.89ZM847.32,92.89C843.721,92.89 840.916,93.754 838.909,95.478C836.424,97.607 835.179,100.741 835.179,104.88C835.179,108.423 836.148,111.176 838.083,113.126C840.095,115.166 843.112,116.182 847.148,116.182C850.405,116.182 853.239,115.558 855.635,114.303L854.203,110.91C852.075,112.174 849.91,112.81 847.706,112.81C844.802,112.81 842.65,111.959 841.25,110.263C840.056,108.834 839.46,106.974 839.46,104.681C839.46,102.002 840.208,99.898 841.697,98.362C843.064,96.962 844.995,96.256 847.486,96.256C849.704,96.256 851.853,96.802 853.935,97.873L855.14,94.404C852.757,93.394 850.154,92.89 847.32,92.89ZM112.963,7.011L112.963,116.065L131.809,116.065L131.809,45.535L170.953,116.065L191.925,116.065L231.069,45.535L231.069,116.065L249.922,116.065L249.922,7.011L231.069,7.011L181.443,96.325L131.809,7.011L112.963,7.011ZM822.61,92.89C819.157,92.89 815.856,94.205 812.699,96.841L812.699,93.537L808.727,93.537L808.727,115.535L812.919,115.535L812.919,100.73C813.708,99.823 814.78,98.966 816.133,98.162C818.159,96.955 820.048,96.345 821.805,96.345C823.652,96.345 824.91,96.817 825.577,97.756C826.07,98.456 826.32,99.695 826.32,101.466L826.32,115.535L830.519,115.535L830.519,101.707C830.519,100.236 830.456,99.068 830.32,98.204C830.038,96.179 829.148,94.767 827.663,93.964C826.319,93.249 824.636,92.89 822.611,92.89L822.61,92.89ZM885.377,92.89C881.923,92.89 878.616,94.205 875.458,96.841L875.458,93.537L871.487,93.537L871.487,115.535L875.685,115.535L875.685,100.73C876.475,99.823 877.547,98.966 878.9,98.162C880.925,96.955 882.814,96.345 884.571,96.345C886.418,96.345 887.676,96.817 888.343,97.756C888.837,98.456 889.08,99.695 889.08,101.466L889.08,115.535L893.285,115.535L893.285,101.707C893.285,100.236 893.215,99.068 893.079,98.204C892.797,96.179 891.914,94.767 890.429,93.964C889.085,93.249 887.402,92.89 885.377,92.89ZM350.393,92.89C346.935,92.89 343.635,94.205 340.482,96.841L340.482,93.537L336.503,93.537L336.503,115.535L340.702,115.535L340.702,100.73C341.492,99.823 342.563,98.966 343.917,98.162C345.946,96.955 347.831,96.345 349.588,96.345C351.43,96.345 352.695,96.817 353.367,97.756C353.856,98.456 354.103,99.695 354.103,101.466L354.103,115.535L358.295,115.535L358.295,101.707C358.295,100.236 358.232,99.068 358.096,98.204C357.814,96.179 356.924,94.767 355.439,93.964C354.1,93.249 352.414,92.89 350.394,92.89L350.393,92.89ZM759.562,82.93L755.363,84.114L755.363,115.535L759.562,115.535L759.562,100.73C760.309,99.851 761.369,98.994 762.756,98.162C764.776,96.955 766.67,96.345 768.427,96.345C770.288,96.345 771.555,96.817 772.227,97.756C772.715,98.47 772.963,99.709 772.963,101.466L772.963,115.535L777.155,115.535L777.155,101.707C777.155,100.236 777.091,99.068 776.955,98.204C776.673,96.165 775.783,94.753 774.299,93.964C772.945,93.249 771.258,92.89 769.233,92.89C765.897,92.89 762.673,94.113 759.562,96.552L759.562,82.93ZM468.258,92.89C464.8,92.89 461.497,94.205 458.34,96.841L458.34,93.537L454.368,93.537L454.368,115.535L458.56,115.535L458.56,100.73C459.35,99.823 460.421,98.966 461.775,98.162C463.8,96.955 465.689,96.345 467.446,96.345C469.293,96.345 470.558,96.817 471.225,97.756C471.718,98.456 471.961,99.695 471.961,101.466L471.961,115.535L476.16,115.535L476.16,101.707C476.16,100.236 476.097,99.068 475.961,98.204C475.679,96.179 474.789,94.767 473.304,93.964C471.96,93.249 470.279,92.89 468.259,92.89L468.258,92.89ZM619.01,92.89C615.557,92.89 612.256,94.205 609.099,96.841L609.099,93.537L605.127,93.537L605.127,115.535L609.319,115.535L609.319,100.73C610.109,99.823 611.18,98.966 612.533,98.162C614.559,96.955 616.448,96.345 618.205,96.345C620.052,96.345 621.317,96.817 621.984,97.756C622.477,98.456 622.72,99.695 622.72,101.466L622.72,115.535L626.919,115.535L626.919,101.707C626.919,100.236 626.856,99.068 626.72,98.204C626.438,96.179 625.548,94.767 624.063,93.964C622.719,93.249 621.036,92.89 619.011,92.89L619.01,92.89ZM741.363,92.89L741.363,92.89L741.363,92.89L741.363,92.89C737.909,92.89 734.609,94.205 731.452,96.841L731.452,93.537L727.473,93.537L727.473,115.535L731.672,115.535L731.672,100.73C732.461,99.823 733.535,98.966 734.893,98.162C736.918,96.955 738.807,96.345 740.565,96.345C742.411,96.345 743.665,96.817 744.337,97.756C744.825,98.456 745.073,99.695 745.073,101.466L745.073,115.535L749.272,115.535L749.272,101.707C749.272,100.236 749.202,99.068 749.065,98.204C748.783,96.179 747.9,94.767 746.415,93.964C745.076,93.249 743.384,92.89 741.363,92.89ZM439.226,93.358C437.083,93.414 435.251,93.737 433.719,94.315C431.915,95.001 430.129,96.06 428.357,97.488L428.357,93.537L424.358,93.537L424.358,115.535L428.557,115.535L428.557,101.398C429.882,100.039 431.605,98.916 433.733,98.004C435.326,97.323 437.099,96.946 439.054,96.889L439.226,93.358ZM969.384,82.503C966.438,82.503 964.334,83.347 963.065,85.029C962.098,86.294 961.613,88.264 961.613,90.942L961.613,93.537L956.857,93.537L956.857,96.91L961.613,96.91L961.613,115.535L965.812,115.535L965.812,96.91L972.757,96.91L972.757,93.537L965.812,93.537L965.812,90.832C965.812,89.211 966.02,88.043 966.438,87.329C967.016,86.361 968.169,85.876 969.893,85.876C970.847,85.876 971.912,86.035 973.087,86.344L973.892,83.109C972.328,82.705 970.827,82.503 969.384,82.503ZM941.467,82.93L937.268,84.114L937.268,115.535L941.467,115.535L941.467,82.93ZM326.103,84.114L326.103,115.535L330.412,115.535L330.412,84.114L326.103,84.114ZM444.058,93.538L444.058,115.529L448.249,115.529L448.249,93.538L444.058,93.538ZM414.061,93.538L414.061,115.529L418.26,115.529L418.26,93.538L414.061,93.538ZM568.358,93.538L568.358,115.529L572.55,115.529L572.55,93.538L568.358,93.538ZM948.281,93.538L948.281,115.529L952.472,115.529L952.472,93.538L948.281,93.538ZM861.204,93.538L861.204,115.529L865.402,115.529L865.402,93.538L861.204,93.538ZM910.452,96.278C912.129,96.278 913.913,96.542 915.807,97.077L915.807,106.279C915.807,107.111 915.76,107.72 915.676,108.11C915.478,108.886 915.062,109.639 914.423,110.368C912.948,112.003 910.949,112.825 908.435,112.825C904.295,112.825 902.226,110.412 902.226,105.591C902.226,102.819 902.895,100.596 904.216,98.928C905.63,97.157 907.708,96.278 910.452,96.278L910.452,96.278L910.452,96.278L910.452,96.278ZM493.326,96.278C495.009,96.278 496.792,96.542 498.681,97.077L498.681,106.279C498.681,107.111 498.635,107.72 498.551,108.11C498.353,108.886 497.944,109.639 497.305,110.368C495.829,112.003 493.83,112.825 491.317,112.825C487.177,112.825 485.101,110.412 485.101,105.591C485.101,102.819 485.77,100.596 487.09,98.928C488.509,97.157 490.582,96.278 493.326,96.278L493.326,96.278L493.326,96.278L493.326,96.278ZM397.79,96.278C399.98,96.278 401.628,96.977 402.732,98.377C403.784,99.717 404.315,101.516 404.315,103.781C404.315,106.266 403.728,108.335 402.553,109.989C401.195,111.878 399.001,112.825 395.966,112.825C393.762,112.825 391.901,112.382 390.398,111.504L390.398,102.824C390.398,101.677 390.549,100.785 390.845,100.16C391.399,99.014 392.322,98.073 393.619,97.345C394.897,96.631 396.286,96.278 397.79,96.278ZM798.485,104.653L798.485,108.212C798.485,108.762 798.433,109.169 798.334,109.437C798.122,110.02 797.671,110.565 796.985,111.068C795.406,112.229 793.379,112.81 790.893,112.81C787.736,112.81 786.165,111.675 786.165,109.396C786.165,107.131 787.977,105.725 791.609,105.19C793.244,104.954 795.539,104.775 798.485,104.653L798.485,104.653ZM588.925,96.243C591.782,96.243 593.765,97.183 594.879,99.072C595.33,99.833 595.643,100.92 595.821,102.334L581.704,102.334C581.874,101.127 582.112,100.191 582.427,99.519C583.498,97.329 585.664,96.243 588.925,96.243ZM666.097,96.243C668.954,96.243 670.944,97.183 672.058,99.072C672.509,99.833 672.815,100.92 672.994,102.334L658.877,102.334C659.046,101.127 659.285,100.191 659.6,99.519C660.671,97.329 662.836,96.243 666.097,96.243ZM711.566,96.243C714.428,96.243 716.414,97.183 717.527,99.072C717.974,99.833 718.292,100.92 718.47,102.334L704.353,102.334C704.518,101.127 704.759,100.191 705.069,99.519C706.145,97.329 708.306,96.243 711.566,96.243ZM986.206,96.243C989.068,96.243 991.055,97.183 992.174,99.072C992.62,99.833 992.931,100.92 993.11,102.334L978.993,102.334C979.162,101.127 979.394,100.191 979.709,99.519C980.78,97.329 982.945,96.243 986.206,96.243ZM863.323,84.644C862.567,84.644 861.918,84.873 861.382,85.319C860.758,85.84 860.446,86.478 860.446,87.239C860.446,87.92 860.694,88.512 861.183,89.001C861.747,89.584 862.451,89.875 863.282,89.875C863.996,89.875 864.619,89.653 865.154,89.208C865.779,88.7 866.097,88.049 866.097,87.26C866.097,86.578 865.856,85.991 865.382,85.498C864.813,84.934 864.127,84.644 863.323,84.644ZM446.171,84.644C445.414,84.644 444.765,84.873 444.23,85.319C443.605,85.84 443.294,86.478 443.294,87.239C443.294,87.92 443.537,88.512 444.03,89.001C444.594,89.584 445.298,89.875 446.129,89.875C446.844,89.875 447.466,89.653 448.002,89.208C448.627,88.7 448.945,88.049 448.945,87.26C448.945,86.578 448.703,85.991 448.229,85.498C447.66,84.934 446.974,84.644 446.171,84.644ZM950.394,84.644C949.637,84.644 948.993,84.873 948.453,85.319C947.828,85.84 947.517,86.478 947.517,87.239C947.517,87.92 947.767,88.512 948.26,89.001C948.824,89.584 949.521,89.875 950.353,89.875C951.067,89.875 951.696,89.653 952.232,89.208C952.857,88.7 953.168,88.049 953.168,87.26C953.168,86.578 952.927,85.991 952.452,85.498C951.883,84.934 951.202,84.644 950.394,84.644ZM416.174,84.644C415.418,84.644 414.769,84.873 414.233,85.319C413.609,85.84 413.297,86.478 413.297,87.239C413.297,87.92 413.545,88.512 414.034,89.001C414.598,89.584 415.301,89.875 416.133,89.875C416.847,89.875 417.477,89.653 418.012,89.208C418.637,88.7 418.948,88.049 418.948,87.26C418.948,86.578 418.707,85.991 418.233,85.498C417.664,84.934 416.978,84.644 416.174,84.644ZM570.471,84.644C569.715,84.644 569.066,84.873 568.53,85.319C567.905,85.84 567.594,86.478 567.594,87.239C567.594,87.92 567.842,88.512 568.331,89.001C568.895,89.584 569.598,89.875 570.43,89.875C571.144,89.875 571.767,89.653 572.302,89.208C572.927,88.7 573.245,88.049 573.245,87.26C573.245,86.578 573.004,85.991 572.529,85.498C571.961,84.934 571.28,84.644 570.471,84.644ZM972.247,24.087L990.529,65.199L982.07,81.03L992.704,81.03L1020.29,24.087L1009.98,24.087L995.87,55.267L983.012,24.087L972.247,24.087ZM780.135,22.876C777.048,22.876 774.074,23.108 771.208,23.584C769.314,23.919 766.853,24.541 763.822,25.457C763.348,25.598 762.633,25.813 761.689,26.09L764.07,34.012C769.305,31.762 774.262,30.64 778.965,30.64C782.945,30.64 785.691,31.277 787.19,32.56C788.389,33.589 788.987,35.174 788.987,37.316L788.987,38.9C785.651,38.984 783.047,39.083 781.181,39.196C773.419,39.67 767.854,40.873 764.49,42.823C760.318,45.243 758.227,48.976 758.227,54.008C758.227,62.273 763.429,66.411 773.837,66.411C781.294,66.411 786.64,64.572 789.868,60.898L789.868,65.2L798.885,65.2L798.885,40.152C798.885,37.733 798.847,36.096 798.795,35.231C798.598,32.59 798.046,30.513 797.129,29.009C794.564,24.921 788.898,22.876 780.135,22.876L780.135,22.876ZM535.395,22.876C530.109,22.876 526.004,23.816 523.082,25.677C519.938,27.684 518.367,30.725 518.367,34.818C518.367,38.295 519.634,40.943 522.166,42.747C524.502,44.42 528.19,46.059 533.227,47.675L538.692,49.431C539.891,49.792 540.931,50.274 541.824,50.89C542.769,51.529 543.242,52.445 543.242,53.643C543.242,56.979 540.04,58.654 533.64,58.654C528.462,58.654 523.501,57.466 518.745,55.102L516.24,63.451C520.967,65.429 526.836,66.411 533.847,66.411C546.731,66.411 553.174,62.111 553.174,53.512C553.174,51.454 552.779,49.721 552.004,48.302C551.196,46.826 549.807,45.487 547.833,44.289C545.86,43.119 541.141,41.366 533.688,39.03C531.541,38.363 530.11,37.712 529.387,37.069C528.658,36.43 528.299,35.665 528.299,34.777C528.299,32.023 530.85,30.64 535.939,30.64C540.032,30.64 544.06,31.407 548.04,32.939L550.084,24.886C545.38,23.546 540.484,22.876 535.395,22.876ZM856.613,10.934L846.887,13.687L846.887,24.094L839.371,24.094L839.371,31.851L846.887,31.851L846.887,52.514C846.887,55.131 847.075,57.314 847.465,59.067C848.104,61.849 849.448,63.81 851.478,64.952C853.23,65.925 855.944,66.411 859.614,66.411C863.034,66.411 866.554,65.971 870.172,65.083L868.383,57.566C866.433,58.29 864.39,58.654 862.243,58.654C859.409,58.654 857.704,57.913 857.149,56.438C856.788,55.437 856.613,53.21 856.613,49.761L856.613,31.851L868.506,31.851L868.506,24.094L856.613,24.094L856.613,10.934ZM822.204,10.934L812.479,13.687L812.479,24.094L804.962,24.094L804.962,31.851L812.479,31.851L812.479,52.514C812.479,55.131 812.671,57.314 813.057,59.067C813.696,61.849 815.04,63.81 817.07,64.952C818.822,65.925 821.536,66.411 825.205,66.411C828.626,66.411 832.153,65.971 835.771,65.083L833.974,57.566C832.024,58.29 829.977,58.654 827.835,58.654C824.997,58.654 823.296,57.913 822.741,56.438C822.379,55.437 822.204,53.21 822.204,49.761L822.204,31.851L834.098,31.851L834.098,24.094L822.204,24.094L822.204,10.934ZM948.35,22.876C940.672,22.876 934.995,25.006 931.321,29.263C927.924,33.215 926.227,38.514 926.227,45.163C926.227,54.711 929.87,61.064 937.158,64.236C940.499,65.683 944.976,66.411 950.6,66.411C957.141,66.411 963.15,65.363 968.634,63.272L965.75,55.722C963.828,56.553 962.158,57.169 960.739,57.559C958.183,58.283 955.303,58.647 952.108,58.647C945.313,58.647 940.711,57.089 938.287,53.973C936.952,52.272 936.231,50.12 936.118,47.503L969.047,47.503C969.216,45.055 969.302,43.394 969.302,42.534C969.302,37.915 968.353,34.075 966.459,31.012C963.095,25.584 957.061,22.876 948.35,22.876L948.35,22.876ZM386.66,22.876C376.168,22.876 369.146,26.356 365.584,33.31C363.86,36.675 362.996,40.473 362.996,44.702C362.996,47.427 363.399,50.057 364.208,52.59C365.18,55.733 366.712,58.337 368.799,60.395C372.779,64.403 378.619,66.404 386.33,66.404C394.036,66.404 399.879,64.403 403.854,60.395C407.721,56.528 409.656,51.281 409.656,44.66C409.656,37.983 407.721,32.728 403.854,28.885C399.85,24.881 394.112,22.876 386.66,22.876ZM582.792,22.876C572.299,22.876 565.278,26.356 561.716,33.31C559.992,36.675 559.128,40.473 559.128,44.702C559.128,47.427 559.531,50.057 560.339,52.59C561.312,55.733 562.84,58.337 564.93,60.395C568.906,64.403 574.751,66.404 582.462,66.404C590.168,66.404 596.011,64.403 599.986,60.395C603.853,56.528 605.788,51.281 605.788,44.66C605.788,37.983 603.853,32.728 599.986,28.885C595.982,24.881 590.244,22.876 582.792,22.876ZM346.147,6.481L346.147,41.412C346.015,46.294 344.475,50.266 341.707,52.893C339.104,55.369 335.439,56.678 331.121,56.678C327.099,56.678 323.347,55.164 320.542,52.411C318.737,50.635 317.458,48.472 316.79,46.113L307.457,48.79C308.585,52.742 310.725,56.352 313.741,59.321C318.37,63.87 324.543,66.377 331.121,66.377C337.977,66.377 343.95,64.147 348.39,59.927C353.075,55.477 355.657,49.135 355.845,41.598L355.845,6.479L346.147,6.481ZM426.416,3.679L416.691,6.474L416.691,65.206L426.416,65.206L426.416,38.7C427.497,37.173 429.242,35.654 431.634,34.15C435.111,31.979 438.339,30.895 441.318,30.895C444.546,30.895 446.716,31.758 447.83,33.483C448.633,34.761 449.041,36.974 449.041,40.118L449.041,65.206L458.767,65.206L458.767,39.285C458.767,34.332 458.228,30.811 457.142,28.719C455.108,24.824 450.586,22.883 443.576,22.883C437.425,22.883 431.698,24.954 426.416,29.098L426.416,3.679ZM886.533,3.679L876.807,6.474L876.807,65.206L886.533,65.206L886.533,38.7C887.614,37.173 889.359,35.654 891.75,34.15C895.228,31.979 898.456,30.895 901.435,30.895C904.663,30.895 906.833,31.758 907.946,33.483C908.75,34.761 909.158,36.974 909.158,40.118L909.158,65.206L918.883,65.206L918.883,39.285C918.883,34.332 918.344,30.811 917.259,28.719C915.224,24.824 910.703,22.883 903.692,22.883C897.542,22.883 891.815,24.954 886.533,29.098L886.533,3.679ZM684.516,6.481L684.516,65.206L694.242,65.206L694.242,23.303L714.278,65.206L720.748,65.206L740.778,23.303L740.778,65.206L750.511,65.206L750.511,6.481L739.656,6.481L717.534,52.721L695.364,6.481L684.516,6.481ZM639.873,22.876C633.219,22.876 627.309,25.194 622.135,29.841L622.135,24.08L612.946,24.08L612.946,65.199L622.672,65.199L622.672,38.693C623.842,37.138 625.609,35.632 627.972,34.185C631.506,31.986 634.734,30.887 637.657,30.887C640.8,30.887 642.943,31.751 644.085,33.476C644.893,34.73 645.297,36.921 645.297,40.07L645.297,65.199L655.022,65.199L655.022,39.278C655.022,34.297 654.483,30.775 653.398,28.712C651.368,24.817 646.855,22.876 639.873,22.876ZM494.18,22.876C487.526,22.876 481.616,25.194 476.442,29.841L476.442,24.08L467.253,24.08L467.253,65.199L476.979,65.199L476.979,38.693C478.149,37.138 479.916,35.632 482.279,34.185C485.813,31.986 489.041,30.887 491.963,30.887C495.112,30.887 497.25,31.751 498.392,33.476C499.2,34.73 499.604,36.921 499.604,40.07L499.604,65.199L509.329,65.199L509.329,39.278C509.329,34.297 508.784,30.775 507.698,28.712C505.668,24.817 501.162,22.876 494.18,22.876ZM582.709,30.631C587.356,30.631 590.806,32.08 593.061,34.975C594.927,37.394 595.856,40.623 595.856,44.659C595.856,48.667 594.927,51.882 593.061,54.302C590.806,57.197 587.273,58.645 582.462,58.645C577.617,58.645 574.082,57.197 571.855,54.302C569.989,51.882 569.06,48.667 569.06,44.659C569.06,40.623 569.989,37.394 571.855,34.975C574.11,32.08 577.729,30.631 582.709,30.631ZM386.577,30.631C391.225,30.631 394.674,32.08 396.93,34.975C398.795,37.394 399.724,40.623 399.724,44.659C399.724,48.667 398.795,51.882 396.93,54.302C394.674,57.197 391.141,58.645 386.33,58.645C381.485,58.645 377.95,57.197 375.723,54.302C373.857,51.882 372.928,48.667 372.928,44.659C372.928,40.623 373.857,37.394 375.723,34.975C377.978,32.08 381.597,30.631 386.577,30.631ZM789.159,46.084L789.159,50.586C789.159,51.586 789.073,52.327 788.904,52.802C788.519,53.859 787.734,54.832 786.564,55.72C783.947,57.67 780.484,58.638 776.17,58.638C770.8,58.638 768.117,56.885 768.117,53.38C768.117,49.847 771.168,47.666 777.258,46.834C779.734,46.496 783.703,46.248 789.159,46.084L789.159,46.084ZM948.177,30.55C953.327,30.55 956.816,32.012 958.653,34.935C959.405,36.133 959.938,37.925 960.243,40.317L936.07,40.317C936.324,38.259 936.734,36.701 937.289,35.644C938.985,32.251 942.614,30.55 948.177,30.55Z" style="fill-rule:nonzero;"/>
    </g>
</svg>
