<?xml version="1.0" encoding="UTF-8" standalone="no"?>
<!DOCTYPE svg PUBLIC "-//W3C//DTD SVG 1.1//EN" "http://www.w3.org/Graphics/SVG/1.1/DTD/svg11.dtd">
<svg width="100%" height="100%" viewBox="0 0 1200 536" version="1.1" xmlns="http://www.w3.org/2000/svg" xmlns:xlink="http://www.w3.org/1999/xlink" xml:space="preserve" xmlns:serif="http://www.serif.com/" style="fill-rule:evenodd;clip-rule:evenodd;stroke-linejoin:round;stroke-miterlimit:2;">
    <path d="M797.3,508.6C804.4,505.2 807,501.2 807,493.9C807,487.4 804.6,483 799.8,480.7C795.7,478.7 785.4,477 777.8,477C771.2,477 767,475.7 767,473.6C767,472.5 769.1,472.1 776.8,471.8C789.8,471.3 796.3,468 800.8,459.5C803.2,455 802.9,446.1 800.3,442L798.1,438.6L802.2,434.2L806.2,429.9L802.3,426.5C800.2,424.6 798,423.1 797.5,423C796.9,423 794.5,425 792.1,427.4C788.2,431.3 787.4,431.7 785.2,430.9C783.8,430.4 779.4,429.9 775.4,429.8C769.1,429.7 767.3,430 762.3,432.6C754,436.8 750.5,442.1 750.5,450.4C750.5,455.7 751,457.4 753.7,461.7L756.8,466.8L754.4,469.1C751.1,472.2 750.3,477.1 752.6,480.8C754.3,483.8 754.3,483.9 751.7,487C749.6,489.4 749,491.2 749,494.6C749,506.7 759.2,512.2 780.6,511.7C790.3,511.4 792.4,511 797.3,508.6ZM835.7,509.4C839,507.1 843.8,497.6 850.9,480C853.6,473.1 859.2,459.5 863.4,449.6C867.6,439.8 871,431.6 871,431.4C871,431.2 867.4,431 863,431C857.4,431 854.8,431.4 854.5,432.3C848.7,449.1 841.6,468 841.1,468C840.5,468 832.2,447.1 827.9,434.8L826.6,431L818.3,431C813.7,431 810,431.4 810,431.9C810,432.7 812.2,437.9 817,448.5C818,450.7 821.6,459 824.9,467C828.3,475 831.5,482.4 832.1,483.5C832.9,485.1 832.4,487.1 830,492.4L827,499.3L821,498.7L815,498.2L813,502.7C811.9,505.2 811,507.8 811,508.5C811,512.1 830.9,512.9 835.7,509.4ZM1132.7,499.5C1132.8,493.5 1132.9,488.2 1132.9,487.8C1133,487.4 1134.9,487.7 1137.1,488.5C1146.3,491.8 1156.8,489.3 1164,482.1C1170.1,476 1172.5,468 1171.8,456.1C1170.9,440.5 1163.3,431.5 1150.1,430.3C1144.9,429.8 1143.3,430.1 1138.4,432.5C1133.3,435 1132.6,435.1 1131.8,433.6C1130.6,431.4 1126,431.5 1126,433.8C1125.9,435.4 1126,510.2 1126,510.8C1126,511 1127.5,511 1129.3,510.8L1132.5,510.5L1132.7,499.5ZM770.6,499.9C765.7,498.7 763,496.4 763,493.5C763,489.2 765,488.7 777.3,489.8C783.6,490.3 789.7,491.3 790.9,492C793.9,493.5 793.3,497.1 789.8,498.8C786.2,500.5 775.4,501.2 770.6,499.9ZM723,488.4C726.9,487.2 729.6,485.5 733.5,481.7C739.8,475.3 742,469.6 742,459.1C742,446.4 736.1,436.6 725.8,432C719.3,429.1 708,429 701.8,431.8C691.7,436.2 685,447 685,458.9C685,480.9 702.4,494.5 723,488.4ZM629.6,487.9C638.1,484.7 643.3,479 646.1,470C649.9,457.3 647,444.9 638.3,436.9C632.3,431.4 628.1,429.8 619.1,429.8C609.8,429.7 603.3,432.6 597.3,439.4C588.7,449.2 588.1,467.2 596.1,478.4C603.4,488.6 617.3,492.5 629.6,487.9ZM441.1,486.3C445.4,484 452,477.1 452,474.9C452,474.6 449.3,472.9 446,471.3L440.1,468.2L437.5,471.5C430.3,481 417.1,476.3 415.4,463.7C413.8,452.3 418.8,443 426.4,443C431.3,443 433.5,444.3 436.5,449L438.9,452.9L445,449.8C448.3,448.1 451,446.3 451,445.9C451,445.6 449.5,443.1 447.8,440.4C443,433.3 436.1,430 426.1,430C419.5,430 417.8,430.4 413.4,432.9C404.1,438.3 400,446.3 400,459.3C400,463.8 400.5,469.2 401,471.2C403.2,479.1 411.6,486.9 420.4,489.1C426.1,490.6 435.7,489.3 441.1,486.3ZM380.2,487.2C384.6,485.2 392,478.5 392,476.6C392,475.7 385,470.7 381.7,469.2C381.3,469 379.7,470.2 378.2,471.8C376.6,473.5 373.5,475.4 371.1,476.1C363.3,478.4 357.1,474.7 354.5,466.3L353.9,464L373.2,463.8L392.5,463.5L392.2,458.5C391.6,446.3 386.3,436.7 377.7,432.3C368.1,427.2 352.3,430.1 345.5,438.2C339.7,445 338.5,448.7 338.5,459.6C338.5,468.8 338.7,470.1 341.5,475.5C346.6,485.6 356.2,490.4 369.2,489.6C372.9,489.3 377.9,488.3 380.2,487.2ZM174.3,487.7C178.3,486 187,478.4 187,476.6C187,476 184.4,474 181.4,472.1L175.8,468.7L173.3,471.5C170.5,474.5 165.3,477 162,477C158,477 151.9,473 150.4,469.5C149.6,467.6 149,465.6 149,465C149,464.4 155.7,464 168.4,464L187.9,464L187.3,458.3C186.1,445.3 181.8,437.3 173.5,432.8C163.3,427.2 147.5,429.9 140.4,438.3C135.2,444.4 133.6,449.6 133.5,460C133.5,468.4 133.8,470.1 136.3,475.3C141.3,485.3 150.9,490.4 163.6,489.6C167.4,489.4 172.3,488.5 174.3,487.7ZM1038.7,487.2C1047.6,482.6 1052.5,473.1 1052.5,460C1052.5,446.4 1047.6,437.4 1037.4,432.4C1032.7,430.1 1031.1,429.8 1026,430.3C1012.8,431.5 1004.9,440.2 1002.5,456.1C1001.7,461.5 1003.4,470.8 1006,476C1008.5,480.9 1015,486.9 1019.6,488.6C1024.7,490.5 1033.5,489.8 1038.7,487.2ZM952,487.4L957.5,485.5L957.5,450.8L936.5,450.8L935.9,457L951,457L951,468.4C951,476.3 950.6,480 949.8,480.7C948,482 938.6,484 934.1,484C923.8,484 914.1,477 909.9,466.4C907.9,461.4 907.6,458.7 907.6,448.5C907.5,437.2 907.7,436.1 910.6,430C918.8,412.5 936.4,408.7 948.2,421.8C951.6,425.6 952.2,425.9 954.5,424.8C957.5,423.4 957.6,423 955,418.8C950.9,411.7 942.8,408 931.6,408C922.9,408 916.1,410.9 910.6,417C902.5,426 899.4,436.9 900.3,453.3C901,466.8 903.5,473.7 910.4,480.6C918,488.1 923.8,490.1 936.5,489.6C942.7,489.4 948.6,488.5 952,487.4ZM1098.6,486.6C1104.2,483.5 1104,483.5 1104,486C1104,487.6 1104.7,488 1107.5,488L1111,488L1111,432L1104,432L1104,475.6L1101.2,478.3C1093.1,486.1 1077.6,485.2 1072.7,476.7C1071.9,475.1 1071.5,468.4 1071.5,453.5L1071.5,432.5L1068.3,432.2L1065,431.9L1065,454C1065,474 1065.2,476.4 1067,480C1070.6,487 1077.4,490.2 1087.7,489.6C1092,489.3 1095.3,488.5 1098.6,486.6ZM235.3,486.7C248.3,480.8 253.4,468.6 250.4,451C249.5,445.8 246.6,440.8 242,436.6C235.9,431.1 231.9,429.8 222,429.8L213.5,429.8L213.5,409.5L205.8,409.2L198,408.9L198,485L200.8,486.1C212.1,490.5 226.4,490.8 235.3,486.7ZM674,448.4L674,409L666.5,409C662.4,409 659,409.3 659,409.8C659,410.2 658.9,427.9 658.7,449.2L658.5,487.9L665.5,488.2C669.4,488.4 672.8,488.4 673.3,488.2C673.7,488 674,470.1 674,448.4ZM978,466.1L978,444.4L980.8,441.8C984.9,437.9 987.3,437 993.4,437C999,437 999,437 999,434C999,432.4 998.7,431 998.3,430.9C991.9,430.3 988.8,430.5 985.4,432C983.1,433 980.9,434.3 980.6,434.9C979.5,436.7 978,436.2 978,434C978,432.4 977.3,432 975,432L972,432L972,487.9L974.3,488.2C975.5,488.4 976.8,488.4 977.3,488.2C977.7,488 978,478.1 978,466.1ZM121.8,450.6C126.4,430.1 130.3,412.4 130.7,411.2C131.2,409.1 131,409 123.2,409L115.1,409L113.5,416.3C112.7,420.2 110.4,430.5 108.6,439C106.2,449.8 105,453.9 104.4,452.6C104,451.5 100.7,441.4 97,430.1L90.4,409.5L79.6,409.5L72.8,431C64.4,457.5 64.9,456.5 63.9,451C63.5,448.5 61.7,439.8 59.9,431.5C58.2,423.3 56.5,414.9 56.1,413L55.5,409.5L47.2,409.2C39.5,408.9 38.9,409.1 39.4,410.7C40.3,413.5 45.8,438 49.1,453.5C50.7,461.2 53,472 54.2,477.5L56.5,487.5L62.1,487.8L67.8,488.1L76,463C80.5,449.3 84.5,438 85,438C85.4,438 89.4,449.1 93.9,462.7C98.4,476.3 102.3,487.6 102.5,487.9C102.6,488.2 105.2,488.4 108.2,488.2L113.5,487.8L121.8,450.6ZM476.2,467.8L476.5,447.6L479.9,445.3C483.7,442.8 490.4,442.2 493.1,444.3C496.6,447 497,449.7 497,468.9L497,488L513.1,488L512.8,465.8C512.5,443.7 512.5,443.5 509.8,439C506.2,432.7 501.1,430.1 492.4,429.8C487.3,429.7 484.3,430.2 480.8,431.8L476,433.9L476,409L460,409L460,488L476,488L476.2,467.8ZM542.2,468.6C542.2,458.2 542.4,449 542.7,448.3C543.5,446.2 550.5,443 554.2,443C557.9,443 561.4,445 563.1,448.2C563.8,449.5 564.2,456.9 564.1,469.1L563.9,488L581.2,488L580.8,467.3C580.4,448 580.2,446.1 578,441.1C574.5,433.1 569.1,430 559,430C552.9,430 550.4,430.5 546.6,432.4C541.9,434.8 541.8,434.8 541.3,432.9C540.8,431.3 539.8,431 533.9,431C528.4,431 527,431.3 527,432.5L527,487.5C527,487.8 530.4,488 534.6,487.8L542.2,487.5L542.2,468.6ZM319.2,456.3L319.5,424.5L331,424.3L342.5,424.2L342.5,409.5L310.8,409.2L279,409L279,423.9L290.8,424.2L302.5,424.5L302.7,455.5C302.9,472.6 303,486.8 303,487.3C303,487.7 306.6,488 311,488L319,488L319.2,456.3ZM1019.3,481.5C1012.9,477.6 1009.5,469.9 1009.6,459.5C1009.7,446.7 1015.3,437.8 1024.4,436.3C1035.9,434.5 1044.4,442.4 1045.7,456.5C1047.5,476.4 1033.3,489.9 1019.3,481.5ZM1136.6,482.2L1132.8,480.5L1132.8,442.5L1137.6,439.2C1142,436.1 1143,435.8 1148.2,436.2C1159.2,437 1164.2,443.7 1164.8,458.5C1165.1,466.8 1164.9,467.9 1162.3,473C1159.9,477.6 1158.6,479 1154.1,481.3C1147.8,484.4 1142.3,484.8 1136.6,482.2ZM614,475.2C606.8,471.7 603.8,459.4 607.9,450.3C610.4,445 614.7,442.6 620.7,443.3C628.4,444.1 632.2,449.6 632.2,459.7C632.1,467.1 630.1,471.3 625,474.7C621,477.5 618.6,477.6 614,475.2ZM215.3,476.3C214.5,475.7 214,470.4 213.8,459.8C213.5,442.1 213,443 221.5,443C226.4,443 231.3,445.8 234.1,450.2C235.7,452.9 236,454.8 235.8,460.2C235.4,467.4 233.8,470.5 228.8,474.3C226,476.4 217.3,477.7 215.3,476.3ZM709,475.4C704.4,473.5 702.1,470.2 700.8,463.7C699.4,456.9 701,450.8 705.5,446.3C708.3,443.5 709.5,443 713.4,443C722.1,443 727.8,451 726.7,461.7C726,468.5 723.4,473 719,475.2C714.7,477.3 713.5,477.3 709,475.4ZM767.8,457C765.2,454.3 764.8,453.4 765.3,450.3C766.2,444.9 768.9,442.8 775.4,442.2C780.5,441.8 781.1,442 784,444.8C790.6,451.5 786,460 775.8,460C771.6,460 770.4,459.5 767.8,457ZM149.7,452.4C148.6,451.2 152.1,445.9 155.3,444C157.1,442.9 159.6,442 160.8,442C164.1,442 168.6,444.8 169.9,447.7C172.2,452.8 171.8,453 160.7,453C155,453 150.1,452.7 149.7,452.4ZM355,451.2C355,447.1 361.2,442 366.3,442C367.6,442 369.9,442.9 371.4,444.1C374.3,446.4 377.3,451.4 376.3,452.4C375.9,452.7 371,453 365.3,453C356.1,453 355,452.8 355,451.2ZM552.596,222.394L552.561,222.391C552.539,222.391 552.519,222.394 552.5,222.4C551.1,222.9 551.8,234.2 553.6,241.5C555.5,248.8 561.6,262 567.2,270.9C590.5,308.1 640.4,340.7 689.5,350.9C699.4,352.925 703.788,353.6 712.07,353.6L712.593,353.599C715.233,353.59 718.273,353.517 722,353.4C730.9,353.2 737.9,352.4 742.5,351.2C758.1,347 769.2,338.8 775.6,326.8C779,320.2 779.4,318.6 779.8,310.4C780.3,298.8 779,292.7 773.5,281.5C766.7,267.4 755.7,254.3 741,242.5C735.192,237.824 731.516,235.45 730.163,235.389L730.1,235.387C728.8,235.4 729.9,237.8 733.6,242.6C753.4,268.1 763.4,292.7 760.1,307.6C758.6,314 753.9,320 748.1,322.9C742.592,325.691 735.021,327.066 726.17,327.104L725.604,327.105C710.445,327.073 691.625,323.175 673,315.8C625.5,296.9 575.6,259.4 557.9,229.5C555.613,225.592 553.325,222.502 552.596,222.394ZM495.3,345.5C504.5,343.8 517.2,339.7 528,334.8C531.6,333.2 534.5,332 534.5,332.1C534.5,332.2 535.6,331.8 536.9,331.1C538.5,330.2 538.9,329.5 538.2,328.8C536.8,327.4 534.9,327.6 520.5,329.8C505.9,332.1 486.8,332 476.5,329.6C461.5,326.1 453.9,318.9 453.2,307.6C450.9,272.1 508.6,216.9 579.3,187C593.6,181 620.6,174.8 625.8,176.4C626.7,176.7 628.2,176.5 629,176C631.4,174.5 628.6,172.5 619.5,169.4C605.8,164.8 583.1,164.7 563.5,169.1C551.5,171.9 529.5,180.1 519.5,185.6C501.3,195.6 478.6,213.1 464.6,228C448.8,244.9 435,268 430.9,284.9C428.1,296 428.6,310.7 431.9,319.3C434.7,326.4 443.7,336.4 450.9,340.3C462.4,346.6 478.3,348.4 495.3,345.5ZM654.77,27.317C643.333,15.907 630.681,10.394 617.089,10.852C609.673,11.207 608.088,11.661 600.786,15.414C590.49,20.781 585.858,24.957 578.908,35.32C570.097,48.259 564.252,64.335 561.383,82.966C559.056,97.935 560.556,100.533 565.17,89.325C577.353,59.427 593.658,38.467 608.211,33.875C614.504,31.974 622.05,33.044 627.461,36.617C641.543,45.808 654.182,73.498 658.863,105.206C666.245,155.792 658.719,217.757 641.675,248.035C639.324,252.164 637.753,255.842 638.226,256.262C639.359,257.224 648.795,250.968 654.217,245.759C659.589,240.464 667.971,228.581 672.878,219.281C693.444,180.503 696.727,120.988 681.01,73.366C676.748,60.585 675.308,57.49 666.925,43.97C662.302,36.363 658.109,30.701 654.77,27.317Z" style="fill-rule:nonzero;"/>
</svg>
