<?xml version="1.0" encoding="UTF-8" standalone="no"?>
<!DOCTYPE svg PUBLIC "-//W3C//DTD SVG 1.1//EN" "http://www.w3.org/Graphics/SVG/1.1/DTD/svg11.dtd">
<svg width="100%" height="100%" viewBox="0 0 560 480" version="1.1" xmlns="http://www.w3.org/2000/svg" xmlns:xlink="http://www.w3.org/1999/xlink" xml:space="preserve" xmlns:serif="http://www.serif.com/" style="fill-rule:evenodd;clip-rule:evenodd;stroke-linejoin:round;stroke-miterlimit:2;">
    <g id="layer101">
        <path d="M0,321L0,0L461,0L462.7,0.8C463.7,1.3 466.9,2 470,2.4C473,2.8 478.8,4 482.8,5.1C486.9,6.1 493.5,8.5 497.5,10.4C501.5,12.2 508.1,15.9 512.1,18.5C516.1,21.1 523.3,27.1 528.1,31.8C532.8,36.6 538.8,43.8 541.4,47.8C544,51.8 547.7,58.4 549.5,62.4C551.4,66.4 553.8,73 554.8,77.1C555.9,81.1 557.1,86.9 557.5,90C557.8,93 558.3,96.2 558.6,97.2C558.9,98.2 559.3,99 559.5,99L560,99L560,444L558,444C556.9,444 459.3,443.9 341.2,443.9C216.7,443.9 123.9,443.5 120.5,443C117.2,442.5 110.6,441.4 105.8,440.5C101.1,439.7 93.2,437.6 88.3,435.9C83.4,434.1 75.6,430.8 71,428.4C66.3,426.1 59.1,421.8 55,418.9C50.8,416 43.6,409.7 38.9,405C34.2,400.3 27.9,393.1 25,389C22.1,384.8 17.8,377.5 15.3,372.6C12.8,367.7 9.3,359.2 7.4,353.6C5.6,348 3.5,339.2 2.9,334C2.2,328.7 1.3,323.7 0.8,322.7L0,321M425.4,378.7C425.2,378 425,362.8 425.2,344.9L425.5,312.5L436,312.1C461.8,311.3 460.4,311.2 465.1,314.5C471.3,318.8 474.3,325.4 474.4,334.9C474.5,344.4 472.2,350.6 467,355.3C464.8,357.3 461.3,359.4 459.2,360C455.3,361.2 446.4,360.9 442.2,359.5C440,358.7 440,358.8 440,369.3L440,380L433,380C428.3,380 425.8,379.5 425.4,378.7M441.5,348.4C440.3,347.2 440,344.2 440,335.9C440,325.8 440.1,325 442.2,323.5C445.9,320.9 451.7,321.5 455,324.8C460.2,330.1 460.2,341.9 454.9,347.1C452.5,349.4 451,350 447.5,350C444.7,350 442.4,349.4 441.5,348.4M133.2,360.4C126.6,359.1 119.1,356.6 113.5,353.7C105.8,349.8 94.5,338.5 90.2,330.4C83.7,317.9 84,324.1 83.9,198.8L83.9,85.1L86.2,83.5C88,82.2 91.9,82 108.1,81.9C125.4,81.9 128,82.2 129.8,83.7C131.8,85.4 131.8,86.4 132.2,196.4L132.7,307.3L135.4,309.6L138.1,312L170.9,312C201.3,312 203.8,312.1 205.3,313.8C206.7,315.4 206.9,318.4 206.9,336C206.9,347.3 206.6,356.9 206.2,357.6C204.1,360.6 200.6,361 168.5,361C150.6,361 134.7,360.7 133.2,360.4M248.3,359C237.9,354.6 233,346.6 233,334.3C233,320.9 236.6,313.7 246.1,308.4C251.1,305.6 252.1,305.5 262.5,305.5C270.3,305.5 274.3,305.9 276.5,307C279.2,308.3 279.5,309 279.7,314.2C280.1,320.7 279.3,321.2 272.6,318.5C264.3,315 253.9,317.6 250.7,324C248.5,328.4 248.4,338.9 250.5,343C252.3,346.6 256.7,349 261.4,349L264.9,349L265.2,341.2L265.5,333.5L272.7,333.2L280,332.9L280,344.9C280,356.6 279.9,356.9 277.5,358.4C275.8,359.4 271.3,360.1 264,360.5C254.5,360.9 252.3,360.7 248.3,359M288.5,360.4C287.2,359.9 287,356.2 287,335.9L287,312L294,312C299.2,312 301.2,312.3 301.6,313.4C302.1,314.7 302.7,314.6 306.1,312.9C308.7,311.5 311.5,310.9 314.3,311.1L318.5,311.5L318.7,317.7L319,323.9L312.4,323.7C306.5,323.5 305.6,323.7 303.9,325.8C302.2,327.9 302,329.9 302,343.9L302,359.7L299,360.3C295.2,361.1 290.4,361.1 288.5,360.4M334.9,359.7C323.6,355 318.1,343.2 320.9,329.7C323.4,317.8 332.4,310.9 345.4,311C356.4,311 363.8,315.1 368.3,323.5C371.3,329.3 371.3,342.8 368.2,348.6C365.5,353.8 360.1,358.3 354.9,359.8C349.7,361.3 338.7,361.3 334.9,359.7M340.4,349.8C336.3,347 334.6,334.7 337.3,327C339.6,320 349.2,319 353,325.3C356.9,331.6 355,347.3 350,349.9C347.3,351.3 342.4,351.3 340.4,349.8M381.2,359C374.4,355.4 374,353.7 374,331.5L374,311.9L381.2,312.2L388.5,312.5L389,329.8C389.4,345.5 389.6,347.3 391.4,348.5C394,350.4 399,350.3 401.7,348.4C403.9,346.9 404,346.3 404,329.4L404,312L419,312L419,359.9L415.4,360.5C413.5,360.9 410.5,360.9 408.7,360.5C405.1,359.7 402.4,359.7 392,360.5C386.2,360.9 384.3,360.6 381.2,359M207.7,274.4C206.5,274.1 201.9,273.2 197.6,272.4C188,270.5 177.1,265.7 174.6,262.3C173,260.2 172.8,258 172.9,246.2C173,238 173.5,232 174.1,231.3C176,229 179.6,229.8 189.2,234.4C202.6,240.7 209.9,242.4 225.5,242.4C237.4,242.4 238.9,242.2 243.4,240C251.6,235.9 255.2,228.2 252.9,219.7C251.2,213.2 244.5,207.6 223.8,195.2C213.6,189 202.6,182.1 199.4,179.6C181.9,166.7 175,152.8 176.3,133C177.2,118.4 181.8,108.2 191.7,98.8C202.5,88.5 216.5,83.4 236.9,82.3C259.6,81.1 285.2,86.7 291.5,94.1C293.8,97 294,97.7 294,110.8C294,120.2 293.6,124.9 292.8,125.8C290.6,127.9 286.3,127 275.8,122.1C270.1,119.4 263.3,116.7 260.8,116.1C254.1,114.5 237.2,114.7 231.5,116.4C222.5,119.1 218.1,126.1 219.9,134.5C221.3,140.5 227.8,145.8 251,159.8C274.9,174.2 282.4,179.9 288.4,188C295.1,197.1 297.4,205 297.3,219C297.3,228.1 296.8,231.8 295,236.8C289.1,254.2 274.3,267.2 254.7,272.4C248.9,274 212.4,275.5 207.7,274.4M387.1,273.5C347.7,266.2 324.5,242.1 317.9,202C316.1,191.2 316.4,167.3 318.3,156.9C327.9,106.1 365.6,79.4 423.7,82.3C444.5,83.3 464.6,88.4 470.2,94C472.9,96.8 473,96.8 473,110.9C473,123.6 472.8,125.1 471,127C469.9,128.1 468.2,128.9 467.3,129C466.4,129 461.6,127 456.6,124.5C443,117.9 436.9,116.5 421,116.5C406.5,116.5 400.3,117.7 390.8,122.5C383.8,126.1 376.6,133.8 372.5,142.2C366.4,154.7 365.4,160.1 365.5,181C365.5,198.1 365.7,200 368.1,207.2C372.8,221.2 380.5,230.3 392.4,235.9C401.7,240.3 408,241.3 423.1,240.7C437.8,240.2 444.4,238.5 458.9,231.5C467.6,227.4 468.3,227.3 471,230C472.7,231.7 473,233.3 473,245C473,254.3 472.5,258.8 471.5,260.8C467.2,269.1 442.5,275 411.5,275C401.2,275 392,274.4 387.1,273.5"/>
    </g>
</svg>
