<?xml version="1.0" encoding="UTF-8" standalone="no"?>
<!DOCTYPE svg PUBLIC "-//W3C//DTD SVG 1.1//EN" "http://www.w3.org/Graphics/SVG/1.1/DTD/svg11.dtd">
<svg width="100%" height="100%" viewBox="0 0 175 49" version="1.1" xmlns="http://www.w3.org/2000/svg" xmlns:xlink="http://www.w3.org/1999/xlink" xml:space="preserve" xmlns:serif="http://www.serif.com/" style="fill-rule:evenodd;clip-rule:evenodd;stroke-linejoin:round;stroke-miterlimit:2;">
    <g transform="matrix(0.995733,0,0,1.00112,-8.46762,-72.2291)">
        <path d="M57.563,113.531C57.563,117.707 54.176,121.094 49.996,121.094L16.07,121.094C11.891,121.094 8.504,117.707 8.504,113.531L8.504,79.715C8.504,75.535 11.891,72.148 16.07,72.148L49.996,72.148C54.176,72.148 57.563,75.535 57.563,79.715L57.563,113.531ZM14.863,96.621C14.863,86.586 23,78.453 33.031,78.453C43.066,78.453 51.203,86.586 51.203,96.621C51.203,106.656 43.066,114.793 33.031,114.793C23,114.793 14.863,106.656 14.863,96.621ZM75.871,105.09C78.109,105.09 79.652,106.852 79.652,109.504C79.652,112.148 78.141,113.922 75.871,113.922C73.605,113.922 72.102,112.148 72.102,109.504C72.102,106.852 73.637,105.09 75.871,105.09ZM152.121,110.422C151.301,110.422 150.891,110.16 150.891,109.539C150.891,108.918 151.301,108.648 152.121,108.648L153.406,108.648C154.262,108.648 154.629,109 154.629,109.914C154.629,112.242 153.234,113.922 151.043,113.922C148.914,113.922 147.371,112.148 147.371,109.492C147.371,106.781 148.895,105.078 151.246,105.078C152.953,105.078 154.078,105.992 154.078,106.816C154.078,107.285 153.742,107.707 153.332,107.707C152.813,107.707 152.254,106.898 151.191,106.898C150.016,106.898 149.262,107.848 149.262,109.457C149.262,111.102 150.035,112.102 151.184,112.102C152.102,112.102 152.715,111.453 152.738,110.422L152.121,110.422ZM117.996,106.57C117.996,105.664 118.277,105.219 118.871,105.219C119.465,105.219 119.746,105.664 119.746,106.57L119.746,109.879C119.746,111.359 120.273,112.102 121.289,112.102C122.305,112.102 122.836,111.359 122.836,109.879L122.836,106.57C122.836,105.664 123.113,105.219 123.711,105.219C124.305,105.219 124.586,105.664 124.586,106.57L124.586,110.09C124.586,112.582 123.301,113.922 121.289,113.922C119.281,113.922 117.996,112.582 117.996,110.09L117.996,106.57ZM136.309,109.504C136.309,106.828 137.969,105.09 140.09,105.09C141.449,105.09 142.391,105.758 142.391,106.43C142.391,106.875 142.055,107.285 141.645,107.285C141.242,107.285 140.734,106.957 140.098,106.957C138.977,106.957 138.207,107.941 138.207,109.551C138.207,111.113 138.977,112.074 140.152,112.074C140.887,112.074 141.371,111.641 141.785,111.641C142.141,111.641 142.484,112.031 142.484,112.477C142.484,113.215 141.516,113.922 140.066,113.922C137.84,113.922 136.309,112.195 136.309,109.504ZM181.27,113.898C179.836,113.898 178.785,113.238 178.785,112.559C178.785,112.055 179.109,111.699 179.648,111.699C180.113,111.699 180.742,112.121 181.52,112.121C182.004,112.121 182.383,111.758 182.383,111.266C182.383,110.598 181.875,110.387 181.043,110.113C179.563,109.633 178.871,109.047 178.871,107.742C178.871,106.238 179.965,105.102 181.66,105.102C182.934,105.102 183.754,105.664 183.754,106.336C183.754,106.828 183.473,107.145 182.965,107.145C182.547,107.145 182.059,106.852 181.594,106.852C181.055,106.852 180.742,107.156 180.742,107.566C180.742,108.164 181.262,108.234 182.133,108.555C183.563,109.07 184.254,109.832 184.254,111.09C184.254,112.711 183.105,113.898 181.27,113.898ZM99.703,113.898C98.27,113.898 97.219,113.238 97.219,112.559C97.219,112.055 97.543,111.699 98.086,111.699C98.547,111.699 99.176,112.121 99.953,112.121C100.438,112.121 100.816,111.758 100.816,111.266C100.816,110.598 100.309,110.387 99.477,110.113C97.996,109.633 97.305,109.047 97.305,107.742C97.305,106.238 98.398,105.102 100.094,105.102C101.367,105.102 102.191,105.664 102.191,106.336C102.191,106.828 101.906,107.145 101.402,107.145C100.98,107.145 100.492,106.852 100.027,106.852C99.488,106.852 99.176,107.156 99.176,107.566C99.176,108.164 99.695,108.234 100.57,108.555C101.996,109.07 102.688,109.832 102.688,111.09C102.688,112.711 101.539,113.898 99.703,113.898ZM128.551,113.898C127.113,113.898 126.063,113.238 126.063,112.559C126.063,112.055 126.391,111.699 126.93,111.699C127.395,111.699 128.02,112.121 128.797,112.121C129.285,112.121 129.664,111.758 129.664,111.266C129.664,110.598 129.156,110.387 128.324,110.113C126.844,109.633 126.152,109.047 126.152,107.742C126.152,106.238 127.242,105.102 128.938,105.102C130.215,105.102 131.035,105.664 131.035,106.336C131.035,106.828 130.754,107.145 130.246,107.145C129.824,107.145 129.34,106.852 128.875,106.852C128.336,106.852 128.02,107.156 128.02,107.566C128.02,108.164 128.539,108.234 129.414,108.555C130.84,109.07 131.531,109.832 131.531,111.09C131.531,112.711 130.387,113.898 128.551,113.898ZM80.441,106.734C80.379,106.57 80.344,106.371 80.344,106.195C80.344,105.641 80.734,105.242 81.254,105.242C81.641,105.242 81.859,105.488 82.051,106.063L83.672,110.809L85.176,106.137C85.367,105.512 85.586,105.242 86.039,105.242C86.566,105.242 86.891,105.582 86.891,106.121C86.891,106.313 86.859,106.547 86.773,106.781L84.504,113.051C84.301,113.613 84.051,113.84 83.617,113.84C83.199,113.84 82.969,113.613 82.785,113.121L80.441,106.734ZM157.07,112.945C156.898,113.508 156.605,113.789 156.227,113.789C155.742,113.789 155.395,113.414 155.395,112.887C155.395,112.699 155.418,112.512 155.48,112.336L157.48,106.441C157.762,105.605 158.172,105.207 158.82,105.207C159.414,105.207 159.867,105.594 160.105,106.313L162.051,112.309C162.129,112.547 162.168,112.746 162.168,112.91C162.168,113.449 161.793,113.801 161.305,113.801C160.852,113.801 160.559,113.496 160.387,112.875L160.172,112.102L157.328,112.102L157.07,112.945ZM63.113,106.523C63.254,105.652 63.555,105.219 64.301,105.219C64.949,105.219 65.352,105.582 65.523,106.344L66.691,111.336L67.781,106.336C67.941,105.594 68.344,105.219 68.98,105.219C69.746,105.219 70.07,105.664 70.211,106.594L71.066,112.336C71.098,112.535 71.109,112.688 71.109,112.793C71.109,113.414 70.742,113.789 70.223,113.789C69.727,113.789 69.445,113.414 69.359,112.676L68.809,107.684C68.082,111.078 67.641,113.004 67.383,113.449C67.23,113.707 67.004,113.789 66.648,113.789C66.074,113.789 65.781,113.543 65.621,112.828L64.484,107.684L63.883,112.559C63.773,113.391 63.504,113.777 62.961,113.777C62.465,113.777 62.109,113.414 62.109,112.793C62.109,112.652 62.129,112.453 62.172,112.219L63.113,106.523ZM163.844,106.523C163.984,105.652 164.289,105.219 165.031,105.219C165.68,105.219 166.082,105.582 166.254,106.344L167.422,111.336L168.512,106.336C168.672,105.594 169.074,105.219 169.711,105.219C170.477,105.219 170.801,105.664 170.941,106.594L171.797,112.336C171.828,112.535 171.84,112.688 171.84,112.793C171.84,113.414 171.473,113.789 170.953,113.789C170.457,113.789 170.176,113.414 170.09,112.676L169.539,107.684C168.813,111.078 168.371,113.004 168.109,113.449C167.961,113.707 167.734,113.789 167.379,113.789C166.805,113.789 166.512,113.543 166.352,112.828L165.215,107.684L164.613,112.559C164.504,113.391 164.234,113.777 163.691,113.777C163.195,113.777 162.84,113.414 162.84,112.793C162.84,112.652 162.859,112.453 162.902,112.219L163.844,106.523ZM108.629,106.523C108.77,105.652 109.07,105.219 109.816,105.219C110.465,105.219 110.863,105.582 111.039,106.344L112.203,111.336L113.297,106.336C113.457,105.594 113.855,105.219 114.496,105.219C115.262,105.219 115.586,105.664 115.727,106.594L116.578,112.336C116.613,112.535 116.621,112.688 116.621,112.793C116.621,113.414 116.254,113.789 115.738,113.789C115.238,113.789 114.961,113.414 114.871,112.676L114.32,107.684C113.598,111.078 113.156,113.004 112.895,113.449C112.742,113.707 112.516,113.789 112.16,113.789C111.59,113.789 111.297,113.543 111.133,112.828L110,107.684L109.395,112.559C109.285,113.391 109.016,113.777 108.477,113.777C107.98,113.777 107.621,113.414 107.621,112.793C107.621,112.652 107.645,112.453 107.688,112.219L108.629,106.523ZM88.836,113.777C88.242,113.777 87.961,113.332 87.961,112.43L87.961,106.57C87.961,105.664 88.242,105.219 88.836,105.219C89.43,105.219 89.711,105.664 89.711,106.57L89.711,112.43C89.711,113.332 89.43,113.777 88.836,113.777ZM133.875,113.777C133.281,113.777 133,113.332 133,112.43L133,106.57C133,105.664 133.281,105.219 133.875,105.219C134.469,105.219 134.75,105.664 134.75,106.57L134.75,112.43C134.75,113.332 134.469,113.777 133.875,113.777ZM96.063,106.215C96.063,106.816 95.652,107.098 94.82,107.098L93.395,107.098L93.395,108.59L94.629,108.59C95.457,108.59 95.871,108.871 95.871,109.469C95.871,110.07 95.457,110.348 94.629,110.348L93.395,110.348L93.395,111.91L94.875,111.91C95.707,111.91 96.117,112.195 96.117,112.793C96.117,113.391 95.707,113.672 94.875,113.672L92.832,113.672C91.906,113.672 91.645,113.379 91.645,112.477L91.645,106.664C91.645,105.734 91.883,105.324 92.855,105.324L94.82,105.324C95.652,105.324 96.063,105.617 96.063,106.215ZM177.629,106.215C177.629,106.816 177.219,107.098 176.387,107.098L174.961,107.098L174.961,108.59L176.191,108.59C177.023,108.59 177.434,108.871 177.434,109.469C177.434,110.07 177.023,110.348 176.191,110.348L174.961,110.348L174.961,111.91L176.441,111.91C177.273,111.91 177.684,112.195 177.684,112.793C177.684,113.391 177.273,113.672 176.441,113.672L174.398,113.672C173.469,113.672 173.211,113.379 173.211,112.477L173.211,106.664C173.211,105.734 173.449,105.324 174.422,105.324L176.387,105.324C177.219,105.324 177.629,105.617 177.629,106.215ZM75.871,112.102C76.973,112.102 77.742,111.113 77.742,109.527C77.742,107.871 76.984,106.898 75.871,106.898C74.758,106.898 74.004,107.871 74.004,109.527C74.004,111.113 74.77,112.102 75.871,112.102ZM159.664,110.348L158.777,107.25L157.828,110.348L159.664,110.348ZM24.395,82.934L48.102,96.621L24.395,110.309L24.395,82.934ZM150.164,79.523C155.449,79.523 159.102,83.688 159.102,89.961C159.102,96.207 155.523,100.398 150.164,100.398C144.801,100.398 141.25,96.207 141.25,89.961C141.25,83.688 144.879,79.523 150.164,79.523ZM123.914,89.961C123.914,83.633 127.844,79.523 132.852,79.523C136.066,79.523 138.289,81.105 138.289,82.688C138.289,83.742 137.496,84.715 136.527,84.715C135.582,84.715 134.383,83.938 132.875,83.938C130.219,83.938 128.406,86.27 128.406,90.074C128.406,93.766 130.219,96.039 133.004,96.039C134.738,96.039 135.887,95.012 136.859,95.012C137.703,95.012 138.52,95.93 138.52,96.984C138.52,98.734 136.223,100.398 132.801,100.398C127.539,100.398 123.914,96.316 123.914,89.961ZM95.289,98.094C94.879,99.426 94.191,100.094 93.297,100.094C92.148,100.094 91.328,99.203 91.328,97.957C91.328,97.512 91.379,97.066 91.535,96.652L96.258,82.719C96.922,80.746 97.895,79.805 99.422,79.805C100.828,79.805 101.902,80.719 102.465,82.41L107.059,96.594C107.238,97.152 107.34,97.621 107.34,98.012C107.34,99.289 106.445,100.121 105.297,100.121C104.227,100.121 103.535,99.398 103.129,97.926L102.617,96.098L95.902,96.098L95.289,98.094ZM164.027,82.91C164.359,80.859 165.074,79.828 166.84,79.828C168.367,79.828 169.316,80.691 169.723,82.496L172.48,94.293L175.059,82.469C175.441,80.719 176.387,79.828 177.895,79.828C179.707,79.828 180.473,80.887 180.805,83.078L182.824,96.652C182.898,97.121 182.926,97.484 182.926,97.734C182.926,99.203 182.059,100.094 180.828,100.094C179.656,100.094 178.992,99.203 178.789,97.457L177.484,85.66C175.773,93.68 174.727,98.234 174.117,99.289C173.758,99.898 173.223,100.094 172.379,100.094C171.023,100.094 170.336,99.508 169.953,97.816L167.27,85.66L165.84,97.176C165.586,99.148 164.949,100.066 163.672,100.066C162.496,100.066 161.652,99.203 161.652,97.734C161.652,97.398 161.703,96.93 161.805,96.371L164.027,82.91ZM65.156,100.066C63.75,100.066 63.086,99.012 63.086,96.871L63.086,83.246C63.086,81.051 63.648,80.078 65.949,80.078L69.676,80.078C73.84,80.078 76.316,82.719 76.316,86.797C76.316,90.934 74.016,93.484 70.008,93.484L67.223,93.484L67.223,96.871C67.223,99.012 66.559,100.066 65.156,100.066ZM119.238,79.805C120.16,79.805 121.055,80.773 121.055,81.746C121.055,82.633 120.617,83.246 120.109,84.023L115.922,90.516L115.922,96.871C115.922,99.012 115.258,100.066 113.852,100.066C112.445,100.066 111.785,99.012 111.785,96.871L111.785,90.516L107.594,84.078C107.086,83.301 106.676,82.688 106.676,81.801C106.676,80.801 107.469,79.828 108.668,79.828C109.383,79.828 110.047,80.414 110.789,81.551L113.879,86.355L117.02,81.496C117.734,80.387 118.523,79.805 119.238,79.805ZM121.078,94.957C122.355,94.957 123.379,96.098 123.379,97.484C123.379,98.898 122.355,100.008 121.078,100.008C119.777,100.008 118.754,98.898 118.754,97.484C118.754,96.098 119.801,94.957 121.078,94.957ZM80.453,79.828C81.855,79.828 82.52,80.887 82.52,83.023L82.52,95.652L86.02,95.652C87.984,95.652 88.957,96.316 88.957,97.734C88.957,99.148 87.984,99.816 86.02,99.816L81.191,99.816C78.996,99.816 78.383,99.121 78.383,96.984L78.383,83.023C78.383,80.887 79.047,79.828 80.453,79.828ZM150.164,96.098C152.77,96.098 154.578,93.766 154.578,90.016C154.578,86.102 152.793,83.801 150.164,83.801C147.531,83.801 145.746,86.102 145.746,90.016C145.746,93.766 147.559,96.098 150.164,96.098ZM101.414,91.961L99.32,84.633L97.074,91.961L101.414,91.961ZM69.012,89.406C70.902,89.406 71.848,88.52 71.848,86.797C71.848,85.02 70.926,84.215 69.012,84.215L67.223,84.215L67.223,89.406L69.012,89.406Z"/>
    </g>
</svg>
