<?xml version="1.0" encoding="UTF-8" standalone="no"?>
<!DOCTYPE svg PUBLIC "-//W3C//DTD SVG 1.1//EN" "http://www.w3.org/Graphics/SVG/1.1/DTD/svg11.dtd">
<svg width="100%" height="100%" viewBox="0 0 951 290" version="1.1" xmlns="http://www.w3.org/2000/svg" xmlns:xlink="http://www.w3.org/1999/xlink" xml:space="preserve" xmlns:serif="http://www.serif.com/" style="fill-rule:evenodd;clip-rule:evenodd;stroke-linejoin:round;stroke-miterlimit:2;">
    <g transform="matrix(0.999506,0,0,1,-29.3469,-39.8654)">
        <path d="M667.7,328.5C671.4,327.8 681.2,325.9 689.5,324.5C759,312.2 813.6,296 856.5,275C897.5,254.9 922,232.9 930,209C933,200 932.5,184.1 929,176C913.5,139.7 863.3,108.8 780.7,84.5C712.9,64.6 633.5,52.4 535.5,46.8C508.5,45.2 420.8,45.2 393,46.8C381.1,47.4 367.4,48.2 362.5,48.5C347.4,49.3 354.3,48.2 377,46C454.8,38.8 539.8,37.9 617.5,43.5C742.5,52.5 853,78.3 917.5,113.6C935.7,123.6 947.3,132.1 959,143.9C974.3,159.4 979.8,169.9 980.7,185.5C981.3,195.4 979.9,202.6 975.5,211.6C950.5,263.6 839.6,307.6 684.2,327.4C661,330.3 658.3,330.5 667.7,328.5ZM621.1,293.7C620.6,292.5 619.5,289.7 618.6,287.5C617.7,285.4 617,283.5 617.2,283.4C617.3,283.3 619.7,282 622.6,280.6C629.7,277 633.4,273.6 636,268.3C638,264.2 638.2,262.7 637.6,254.6C636.7,239.7 631.9,223.7 608.5,155.5C603.2,140.2 599.1,127.1 599.3,126.5C599.7,125.5 616.8,119.4 617.4,120.1C618.4,121.2 644.4,205.6 646.6,214.6C649.5,227.2 649.9,228.4 650.4,227.8C650.6,227.6 656.7,207.7 663.9,183.5C671.1,159.3 678.2,135.7 679.6,131.2L682.1,123L693.1,123C701.5,123 704.1,123.2 703.7,124.2C703.4,124.9 693.5,154.7 681.7,190.5C669.8,226.3 659,258.4 657.6,261.7C651.2,276.9 642.6,287.4 632.5,292.3C624.5,296.2 622.1,296.4 621.1,293.7ZM185.2,248.1C181.3,245.5 175.9,239.2 174.8,235.8L173.8,233L168.1,237.6C155.5,247.9 141.8,251.1 125.6,247.5C107.4,243.5 98,230.6 99.2,211.2C100.8,186.1 121.3,171.9 158.2,170.3L172,169.6L172,159.8C172,148.8 170.8,144.9 166.3,140.8C160.5,135.6 151.6,134.6 138.7,137.9C131.2,139.8 121.1,144.3 115.6,148.2C113.9,149.4 112.5,149.8 112.1,149.2C111.7,148.7 109.7,145.7 107.5,142.5C102.8,135.8 102.5,136.3 115,130C141.6,116.6 169.8,116.7 182.6,130.1C184.4,131.9 186.9,135.7 188.1,138.5C190.4,143.4 190.5,143.9 190.5,183.5C190.6,227.6 190.7,228.8 196.6,233.9L200,237L195.5,243.5C193,247 190.3,250 189.5,250C188.6,250 186.7,249.1 185.2,248.1ZM742.2,249C730.2,247.1 715.2,242.3 709.2,238.4L706.9,236.9L710.7,229.9C712.7,226.1 714.7,223.1 715,223.3C719.6,226 731.1,230.6 737.3,232.2C748.3,234.9 761.6,234.4 767.7,231C778.4,225 781.4,210.1 773.8,201.4C769.4,196.4 766.6,195.2 751.1,191.9C729.9,187.2 721.2,182.3 715.4,171.8C711.4,164.4 710.7,152.1 713.9,143.8C717.6,133.9 725.8,125.8 736,121.8C743.4,118.9 760.6,118.2 770.5,120.3C778.3,121.9 787.6,125.2 790.5,127.4C792.4,128.7 792.3,128.9 789.5,134.9C787.8,138.3 786.2,141.3 785.7,141.6C785.3,141.8 780.6,140.4 775.3,138.4C755.2,130.9 740.1,133.3 734.2,144.9C729.7,153.8 732,163.7 739.6,168.2C741.3,169.2 749.5,171.5 757.9,173.4C780.7,178.6 788.9,183.1 794.5,193.1C797.3,198.1 797.5,199.1 797.5,209.5C797.5,219.6 797.2,220.9 794.5,226.4C789.4,236.9 780.6,243.8 767.7,247.4C760.1,249.5 749.3,250.2 742.2,249ZM534.6,249C521.6,247.2 500,239.6 500,237C500,236.1 505.6,224.2 506.4,223.2C506.6,223 509.9,224.5 513.8,226.5C532.4,235.8 555,236.6 564.3,228.1C568.3,224.5 570.2,219 569.8,212C569.1,199.8 564.9,196.7 542,191.5C525.4,187.7 519.3,185 513.3,179C506.4,172.2 504.5,167 504.5,156C504.5,147.5 504.8,145.8 507.4,140.7C512.3,130.9 521.9,123.4 533.5,120.3C541,118.3 556.2,118.6 565.4,120.9C572.4,122.7 585,127.7 585,128.6C585,128.8 583.4,132.1 581.5,135.9L578,142.8L571.4,139.9C556.5,133.1 541.9,132.2 533.3,137.6C525.4,142.5 522.1,151.9 525.4,160.5C527.9,167.1 531.9,169.3 548,172.9C565.9,177 572.5,179.3 578.3,183.5C593.6,194.8 594.9,219.4 580.9,235.2C571.8,245.6 551.9,251.5 534.6,249ZM423.4,246.5C404.9,240.8 392.2,226.3 387.3,205.2C384.8,194.5 384.8,170.2 387.3,161C394,136.8 413.7,119.9 435.5,119.9C457,120 475,132.7 480.3,151.6C481.9,157.4 483.9,175.5 483.9,183.7L484,188L406.7,188L407.4,195.7C408.8,212 412.1,219.2 420.5,225.2C427.4,230.1 433.2,231.9 443,231.9C453.5,232 460,230.2 467.6,225C474.1,220.7 473.3,220.4 478.3,229L480.9,233.6L476.5,236.8C470.9,240.8 463.2,244.4 455.7,246.4C448.3,248.4 429.6,248.5 423.4,246.5ZM32.7,190.7C32.4,142 32.2,134.9 30.7,130.5C29.8,127.8 29.2,125.4 29.4,125.2C29.5,125 33.7,123.8 38.6,122.5C46.5,120.3 47.6,120.2 48.6,121.6C50,123.4 51.9,131.8 52,136C52,138.9 52,138.9 57.7,133.2C66.1,124.8 74.4,120.7 84,120.2C88.5,119.9 91.9,120.1 92.3,120.7C92.6,121.2 91.2,126.1 89.1,131.5L85.2,141.4L80.6,141.1C73.8,140.7 66.8,143.4 60.9,148.7C52,156.7 52.5,153.7 52.2,202.7L52,246L33,246L32.7,190.7ZM215.5,245.3C215.2,244.9 214.9,221.2 214.9,192.5C214.9,141.8 214.7,138 211.8,126.1C211.6,125.1 213.6,124.1 218.5,122.8C230.3,119.7 230.6,120 233.1,131.8L234.3,137.8L239.4,133.3C242.2,130.9 248.2,127 252.8,124.7C260.6,120.8 261.9,120.5 269.3,120.5C275.8,120.5 278.4,120.9 282.1,122.7C287.8,125.6 293.3,130.8 296,136L298,140L304.6,134.3C308.3,131.2 315.1,126.9 319.9,124.6C327.9,120.7 329,120.5 337,120.5C344.6,120.5 346.3,120.8 351.5,123.5C355.5,125.5 358.6,128.1 361.1,131.4C367.8,140.3 368,141.6 368,196.8L368,246L358.2,245.7L348.5,245.5L348,195.8C347.5,147.4 347.4,146 345.4,143.3C342.4,139.3 338.3,137.5 332,137.6C323.9,137.7 314.8,142.8 303.2,153.7L300,156.8L300,246L281.1,246L280.8,197.2C280.5,153.6 280.3,148.1 278.8,145.3C275.9,140.2 272.4,138.5 264.5,138.5C256.2,138.5 249.6,141.4 240.2,148.9L234.5,153.5L233.7,199.2L233,245L224.5,245.5C219.8,245.7 215.7,245.7 215.5,245.3ZM135.1,234.1C125.5,231.3 120.8,224.4 120.7,213.2C120.6,203.1 122.3,198.2 127.8,192.9C134.4,186.6 142.6,184 158.5,183.2C167.6,182.8 170.8,183 171.4,183.9C171.8,184.6 171.8,192.3 171.4,201.1L170.7,217.2L166.5,222.3C159.5,231 144.1,236.8 135.1,234.1ZM407.5,168.2C410,148.5 416.7,138.7 429.6,135.8C440.4,133.4 452.6,138.1 457.6,146.7C460.7,151.8 462.9,160.9 462.9,168.2L463,173L407,173L407.5,168.2Z"/>
    </g>
</svg>
