<?xml version="1.0" encoding="UTF-8" standalone="no"?>
<!DOCTYPE svg PUBLIC "-//W3C//DTD SVG 1.1//EN" "http://www.w3.org/Graphics/SVG/1.1/DTD/svg11.dtd">
<svg width="100%" height="100%" viewBox="0 0 530 135" version="1.1" xmlns="http://www.w3.org/2000/svg" xmlns:xlink="http://www.w3.org/1999/xlink" xml:space="preserve" xmlns:serif="http://www.serif.com/" style="fill-rule:evenodd;clip-rule:evenodd;stroke-linejoin:round;stroke-miterlimit:2;">
    <g transform="matrix(0.997609,0,0,0.997952,-92.5078,-12.0125)">
        <path d="M167.3,146.4C173.2,145.6 173.5,144 167.6,144C163.1,144 154.1,142.4 150.5,141C137.2,135.7 131.5,129.7 127.1,115.9C124.6,107.9 126.2,96.2 130.8,88.7C133.4,84.7 140.3,80 143.8,80C146.7,80 146.8,75.4 143.9,70.3C141,65.2 138.7,63.4 132.7,61.4C128.2,59.9 103.131,56.5 95.2,82C91.818,92.875 91.963,98.081 95.3,109.5C108.04,153.1 157.8,147.7 167.3,146.4ZM292.8,140.8C293.7,139.6 294,138.1 295.5,128C296.8,118.6 295.7,119.4 306.9,119.8C319.3,120.3 324.8,118.9 329.9,113.9C334.7,109.1 338.1,101.6 338.4,99.8C338.8,98 347,70.7 333.8,60.4C330.4,58.3 328.9,58 319.3,58C313.4,58 306.2,58.5 303.4,59.2C298.4,60.4 298.2,60.5 297.7,64.5C297.1,68.8 284.7,137.7 284.4,139.3C283.8,141.9 283.9,142 287.8,142C290,142 292.2,141.4 292.8,140.8ZM547.9,136.8C555,134.3 556.8,130.9 559.5,114C559.8,112.1 566.5,75.5 567.2,71.8L568.4,65L575.1,65C580.8,65 582.1,64.7 583,63.1C585.3,58.7 584.4,58 577,58C570.1,58 570,58 570,55.4C570,51.8 572.1,44.8 573.7,43.2C574.4,42.5 577.8,41.6 581.2,41.2C587.4,40.5 587.5,40.4 587.5,37.5C587.5,34.5 587.5,34.5 581.1,34.2C574.2,33.9 569.7,35.2 566.5,38.5C564.2,40.8 562,46.5 562,50.3C562,51.7 561.5,54.1 560.8,55.5C559.8,57.8 559.1,58 554,58C549.4,58 548.1,58.4 547.6,59.8C547.3,60.7 546.8,62 546.5,62.6C546.1,63.4 547.9,63.9 551.9,64.2C555.2,64.4 558.2,64.8 558.4,65.1C559,65.6 550,113.7 550,115.7C550,120.2 548,127 546.2,128.9C545.4,129.7 542,130.6 538.7,130.9C532.6,131.5 532.5,131.5 532.2,134.8L531.9,138L538.1,138C541.5,138 546,137.4 547.9,136.8ZM378,117.4C378.6,115.9 386.7,70.9 387.3,70.2C389.3,67.6 395.6,65.8 402.6,65.6C408.5,65.5 410.2,65.9 412,67.5C414,69.3 414.1,70.1 413.7,77.5C413.4,81.9 412.7,87.8 412.1,90.5C410,101.4 407.7,120.1 407.7,120.1L411.5,119.8C416.4,119.4 416.3,120 421.8,86.5C422.4,83.2 423.7,72.4 423,69.3C422,65.1 420.8,63.2 418.1,60.9C414.9,58.3 413.9,58 407,58C400.2,58 393.1,59.5 391.4,61.3C390,62.7 388,61.9 388,60C388,58.3 387.3,58 384.1,58C380.4,58 380.2,58.2 379.2,62.3C378.6,64.6 370.7,111.1 370.4,114.3L369.8,120L373.4,120C376.4,120 377.2,119.5 378,117.4ZM494.3,116.5C494.8,114.9 495.6,111.1 496.1,108.3C497.2,101.6 501.4,77.7 501.7,75.5C502.6,69 504.8,67.4 515.4,65.5C520.8,64.6 521.4,64.2 522.1,61.6C522.6,59.9 522.7,58.4 522.4,58.1C521.3,57 512.2,58.3 509.2,60.1C505,62.5 504,62.5 504,60C504,58.3 503.3,58 500.1,58C495.7,58 495.6,58.3 493.9,68.5C493.4,71.8 486.7,111.1 486.4,114.3L485.7,120.1L489.6,119.8C492.8,119.5 493.5,119.1 494.3,116.5ZM354.7,118.8C355.3,118.1 356.1,115.5 356.4,113C358.2,102 366.3,57.9 366.3,57.9L356.5,58.5C356.5,58.5 346.9,115.4 346.5,116C346.1,116.6 346.1,117.7 346.4,118.5C347.1,120.4 353.4,120.5 354.7,118.8ZM614.3,117.3C615,113.4 614.5,113 609,113C600.1,113 600.1,112.8 606.1,80.5C606.6,77.8 608.3,65 608.3,65L615.9,65C623.3,65 624,65 624,60.8L624,58L609.8,58L612.3,44L608.2,44C603.6,44 603,44.9 602.1,52.5L601.5,57.5L594.8,57.8C591,58 588,58.4 588,58.8C588,59.2 587.7,60.5 587.4,61.8C586.9,63.6 587.2,64 588.9,64C590.1,64 601,63.6 600.5,64.9C600.1,65.8 592.6,105.8 592.4,108.6C591.9,113.3 592.1,113.9 595,116.8C598,119.8 598.5,120 606,120C613.7,120 613.8,120 614.3,117.3ZM269.9,118.1C276.2,115.7 279.2,112.6 280.7,106.9C282.1,101.6 281,96.6 277.6,92.8C276.4,91.5 271.1,87.5 265.7,84C255.7,77.4 254.2,75.4 255.4,70.6C256.1,67.9 261.5,64.9 266.3,64.7C268.1,64.6 273.2,64.9 277.6,65.3L285.7,66.1L286.3,63.4C287.3,58.2 286.8,58 272.4,58C260.7,58 258.4,58.3 254.4,60.2C248.8,62.8 246,67 246,72.8C246,79.5 249.9,85.1 257.3,88.9C258.8,89.7 265.8,94.5 270.3,98.4C272.9,100.8 272.5,106.2 269.5,109.3C266.3,112.4 263.2,112.9 249.3,112.2L238,111.7L238,114.7C238,118.7 241.4,119.8 254.7,119.9C262.5,120 266.2,119.5 269.9,118.1ZM468.1,118.8C473.8,117.6 473.8,117.6 474.4,113.6C474.9,109.7 485.5,48.8 486.1,45.5C487.8,35.9 487.8,35.5 485.1,35.2C479.8,34.4 478.3,35.6 477.7,41.2C477,46.6 476.3,51.7 475.4,55.8C475,57.9 474.6,58 463,58C452.1,58 450.7,58.2 446.8,60.5C441,63.8 440.8,64 438.5,67.5C433.8,74.5 431.6,82.6 430.3,97.4C429.5,107.9 432.4,114.3 440.2,118.5C443.2,120.2 460.6,120.4 468.1,118.8ZM530.2,115.5C530.7,113.3 538.6,67.9 539.7,61.3C540.2,58 540.2,58 536.1,58C531.3,58 530,59.7 530,66.4C530,68.9 526.1,88.4 524,100C522.1,110.7 521.1,118.4 521.7,119.3C522,119.7 523.8,120 525.8,119.8C529.2,119.5 529.5,119.2 530.2,115.5ZM299,112.3C299.9,105.8 306.2,66.3 306.2,66.3C306.2,66.3 324.1,66 327.5,67C329.4,67.559 332.5,68.8 332.5,78.4C332.4,86.3 330.6,117.3 299,112.3ZM442.7,109.7C438.5,106 438.2,97.5 441.8,81.5C444.1,71.2 449.4,66.2 459.1,65.4C466.8,64.7 473.7,66 473.1,68.1C472.9,68.9 465.5,111.5 465.5,111.5L455.5,111.8C446.2,112 445.3,111.9 442.7,109.7ZM125.307,12.951C119.407,13.751 119.107,15.351 125.007,15.351C129.507,15.351 138.507,16.951 142.107,18.351C155.407,23.651 161.107,29.651 165.507,43.451C168.007,51.451 166.407,63.151 161.807,70.651C159.207,74.651 152.307,79.351 148.807,79.351C145.907,79.351 145.807,83.951 148.707,89.051C151.607,94.151 153.907,95.951 159.907,97.951C164.407,99.451 189.476,102.851 197.407,77.351C200.79,66.477 200.644,61.27 197.307,49.851C184.567,6.251 134.807,11.651 125.307,12.951ZM368.8,43.1C369.5,41 370,38.1 370,36.6C370,34.2 369.6,34 366.1,34C364,34 361.8,34.6 361.3,35.3C360.1,36.7 359,45.6 359.8,46.5C360.1,46.8 362,47 364,47C367.4,47 367.8,46.7 368.8,43.1ZM543,44.4C543.6,43 544,40.1 544,37.9C544,34 544,34 540.1,34C536.6,34 536.1,34.3 535.1,37.1C534.5,38.9 534,41.8 534,43.6C534,46.9 534.1,47 538,47C541.4,47 542.2,46.6 543,44.4Z" style="fill-rule:nonzero;"/>
    </g>
</svg>
