<?xml version="1.0" encoding="UTF-8" standalone="no"?>
<!DOCTYPE svg PUBLIC "-//W3C//DTD SVG 1.1//EN" "http://www.w3.org/Graphics/SVG/1.1/DTD/svg11.dtd">
<svg width="100%" height="100%" viewBox="0 0 200 54" version="1.1" xmlns="http://www.w3.org/2000/svg" xmlns:xlink="http://www.w3.org/1999/xlink" xml:space="preserve" xmlns:serif="http://www.serif.com/" style="fill-rule:evenodd;clip-rule:evenodd;stroke-linejoin:round;stroke-miterlimit:2;">
    <path id="path3996" d="M15.266,44.114C11.265,44.114 8.025,46.404 6.461,48.027C6.461,48.027 2.655,51.799 0.078,53.105C-0.035,53.167 -0.033,53.292 0.124,53.292L23.418,53.292C28.023,53.292 30.188,51.732 32.921,49.285C32.921,49.285 36.9,45.587 39.629,44.393C39.904,44.289 39.839,44.114 39.629,44.114L15.266,44.114ZM55.284,44.114C51.283,44.114 48.046,46.404 46.479,48.027C46.479,48.027 42.674,51.799 40.097,53.105C39.983,53.167 39.985,53.292 40.143,53.292L63.483,53.292C68.087,53.292 70.254,51.732 72.986,49.285C72.986,49.285 76.921,45.587 79.648,44.393C79.923,44.289 79.903,44.114 79.694,44.114L55.284,44.114ZM95.348,44.114C91.348,44.114 88.109,46.404 86.543,48.027C86.543,48.027 82.737,51.799 80.16,53.105C80.048,53.167 80.051,53.292 80.208,53.292L103.548,53.292C108.152,53.292 110.271,51.732 113.005,49.285C113.005,49.285 116.984,45.587 119.712,44.393C119.988,44.289 119.968,44.114 119.759,44.114L95.348,44.114ZM135.366,44.114C131.367,44.114 128.174,46.404 126.607,48.027C126.607,48.027 122.755,51.799 120.177,53.105C120.065,53.167 120.068,53.292 120.225,53.292L143.564,53.292C148.169,53.292 150.335,51.732 153.068,49.285C153.068,49.285 157.05,45.587 159.777,44.393C160.054,44.289 159.985,44.114 159.777,44.114L135.366,44.114ZM175.429,44.114C171.429,44.114 168.188,46.404 166.624,48.027C166.624,48.027 162.816,51.799 160.24,53.105C160.126,53.167 160.13,53.292 160.286,53.292L183.628,53.292C188.232,53.292 190.396,51.732 193.132,49.285C193.132,49.285 197.068,45.587 199.792,44.393C200.067,44.289 200.05,44.114 199.839,44.114L175.429,44.114ZM96.793,-0.189C88.278,-0.189 79.975,2.339 79.975,10.805C79.975,25.466 105.55,17.721 105.55,26.691C105.55,29.615 101.015,30.791 97.352,30.791C90.772,30.791 86.237,29.812 80.488,26.365L80.488,33.725C84.774,35.138 90.605,35.822 96.933,35.822C105.766,35.822 114.03,33.541 114.03,24.874C114.03,9.566 88.454,16.444 88.454,8.942C88.454,5.921 92.558,4.889 96.142,4.889C102.173,4.889 108.684,6.654 112.261,9.966L112.261,2.14C107.632,0.679 101.486,-0.189 96.793,-0.189ZM177.804,-0.096C164.569,-0.096 155.21,7.523 155.21,18.258C155.21,28.789 163.614,35.776 176.128,35.776C189.423,35.776 198.581,28.348 198.581,17.561C198.584,6.977 190.256,-0.096 177.804,-0.096ZM141.981,-0.096C126.622,-0.096 116.452,7.287 116.452,18.538C116.452,28.864 125.786,35.775 139.745,35.775C144.267,35.775 148.303,35.182 153.021,34.05L153.021,25.338C149.686,28.862 145.722,30.276 141.468,30.276C133.224,30.276 127.585,25.14 127.585,17.744C127.585,10.449 133.431,5.119 141.606,5.119C146.061,5.119 149.632,6.739 152.507,9.546L152.507,0.834C149.518,0.218 145.769,-0.096 141.981,-0.096ZM41.866,9.222L41.866,0.976L1.384,0.976L1.384,9.221C4.261,6.991 10.278,6.15 16.85,6.1L16.85,28.6C16.85,31.872 16.561,32.804 15.173,34.517L28.171,34.517C26.712,32.804 26.493,31.872 26.493,28.6L26.493,5.912C32.189,5.962 38.989,6.989 41.866,9.222ZM45.365,0.98L45.361,0.975L45.361,0.98L45.365,0.98C46.722,2.689 46.991,3.667 46.991,6.938L46.991,28.6C46.991,31.872 46.745,32.855 45.454,34.517L76.853,34.517L76.853,26.365C72.545,29.432 64.346,29.443 61.014,29.392L56.449,29.392L56.449,20.029L59.803,20.029C62.076,20.029 66.177,20.298 68.561,21.008L68.561,14.021C66.211,14.776 62.069,15 59.803,15L56.449,15L56.449,6.104L61.014,6.104C65.093,6.104 72.187,6.948 74.85,9.179L74.85,0.98L45.365,0.98ZM176.922,4.982C183.854,4.982 188.428,10.717 188.428,17.793C188.428,24.869 183.854,30.605 176.922,30.605C169.877,30.605 165.366,24.869 165.366,17.793C165.367,10.718 169.877,4.982 176.922,4.982Z" style="fill-rule:nonzero;"/>
</svg>
