<svg xmlns="http://www.w3.org/2000/svg" fill-rule="evenodd" stroke-linejoin="round" stroke-miterlimit="2" clip-rule="evenodd" viewBox="0 0 150 150">
  <defs/>
  <path d="M49.6 139.4c-13.8-3.3-26.5-13.2-31.9-24.7-12.9-27.1-5.7-74.1 14.2-93 4.4-4.2 7.1-5.9 11.2-7.1 6.3-1.8 20.1-3.6 27.6-3.6 4 0 5.3-.4 5.3-1.5C76 7.8 79 6 81.9 6c3.3 0 22.4 9.7 29.3 14.9 18.7 14.2 27.7 33.5 26.6 57-1.5 30.9-21.1 53.5-52.8 61.1-10.1 2.4-26.4 2.6-35.4.4zm6.9-9c-18.7-4-30.3-13.9-34.5-29.4-4.9-18-1.7-47.3 6.7-61.9 3.5-6.1 9-11.9 13.2-14 8.9-4.5 17.4-6.5 27.2-6.6 9.2 0 9.9.2 16.9 3.8 6 3.1 8 3.7 10.9 3.2 3-.5 4.7 0 9.6 3 22.9 13.6 29.1 45.3 14.3 73.9-5.3 10-14.8 19.9-23.1 23.9-11.4 5.5-27 7.1-41.2 4.1zm33-26c6.9-2.4 14.7-10.3 16.4-16.7.8-2.6 1.1-5 .8-5.4-.4-.3-2.7 1.7-5.2 4.5-2.7 3-7 6.3-10.3 7.9-5.2 2.6-6.6 2.8-17.2 2.8-10.8 0-11.9-.2-18-3.1-8.3-3.9-12.4-7.5-14.6-12.4-2.4-5.5-3.8-5-3.2 1 1.1 10.8 11.3 19.5 27.3 23 5.6 1.3 18.1.4 24-1.6zm8.4-39c2.5-3.2 2.6-5.1.4-7.6C94.9 54 89 56.6 89 62c0 5.9 5.4 7.9 8.9 3.4zm-42.1.4c3-3 .2-10.8-3.9-10.8-4.3 0-6.6 7.1-3.3 10.4 1.8 1.9 5.5 2.1 7.2.4z"/>
</svg>
