<?xml version="1.0" encoding="UTF-8" standalone="no"?>
<!DOCTYPE svg PUBLIC "-//W3C//DTD SVG 1.1//EN" "http://www.w3.org/Graphics/SVG/1.1/DTD/svg11.dtd">
<svg width="100%" height="100%" viewBox="0 0 512 470" version="1.1" xmlns="http://www.w3.org/2000/svg" xmlns:xlink="http://www.w3.org/1999/xlink" xml:space="preserve" xmlns:serif="http://www.serif.com/" style="fill-rule:evenodd;clip-rule:evenodd;stroke-linejoin:round;stroke-miterlimit:2;">
    <path d="M437.169,341.627C430.772,341.627 426.506,345.893 426.506,352.29L426.506,416.266C426.506,433.326 411.578,448.253 394.519,448.253L53.314,448.253C36.254,448.253 21.327,433.325 21.327,416.266L21.327,107.048L426.508,107.048L426.508,181.687C426.508,188.084 430.774,192.349 437.171,192.349C443.568,192.349 447.834,188.083 447.834,181.687L447.834,53.735C447.834,23.88 424.376,0.421 394.52,0.421L53.314,0.421C23.458,0.421 -0,23.88 -0,53.735L-0,416.265C-0,446.12 23.458,469.579 53.314,469.579L394.519,469.579C424.374,469.579 447.833,446.121 447.833,416.265L447.833,352.289C447.831,345.892 443.567,341.627 437.169,341.627ZM356.044,273.01L381.569,239.632C385.497,235.704 383.532,229.815 379.606,225.888C375.678,221.96 369.789,223.925 365.862,227.851L344.264,257.301L322.666,227.851C318.739,223.923 312.849,221.961 308.922,225.888C304.994,229.815 303.032,235.704 306.959,239.632L332.484,273.01L306.959,306.388C303.031,310.316 304.996,316.205 308.922,320.132C310.885,322.095 312.85,322.095 314.812,322.095C318.74,322.095 320.702,320.132 322.665,318.167L344.263,288.717L365.861,318.167C367.824,320.13 369.789,322.095 373.714,322.095C375.677,322.095 377.642,322.095 379.604,320.132C383.532,316.204 385.494,310.315 381.567,306.388L356.044,273.01ZM167.556,233.741L167.556,292.644C167.556,298.534 163.629,302.461 157.74,302.461C151.85,302.461 147.923,298.534 147.923,292.644C147.923,286.754 143.996,282.826 138.107,282.826C132.218,282.826 128.29,286.754 128.29,292.644C128.29,308.351 142.035,322.094 157.741,322.094C173.447,322.094 187.191,308.35 187.191,292.644L187.191,233.741C187.191,227.852 183.263,223.925 177.374,223.925C171.484,223.924 167.556,227.852 167.556,233.741ZM250.02,241.596C261.801,241.596 267.931,247.587 269.654,251.412C272.073,256.782 275.544,261.229 279.471,261.229C285.361,261.229 289.912,257.023 289.288,251.412C287.325,235.705 271.617,223.925 250.02,223.925C228.422,223.925 210.751,237.669 210.751,253.375C210.751,269.081 222.447,278.473 246.007,282.399L250.019,282.826C265.726,284.788 270.239,289.186 268.736,292.814C266.613,297.946 257.874,302.46 246.093,302.46C234.312,302.46 229.089,297.246 226.459,292.643C223.28,287.079 221.724,282.687 216.642,282.826C210.755,282.986 208.316,287.291 208.788,292.643C210.751,308.35 226.459,320.13 248.057,320.13C269.654,320.13 287.325,306.386 287.325,290.68C287.325,274.974 276.063,264.052 252.279,261.857C246.374,261.312 230.412,260.821 230.387,251.412C230.376,247.485 238.24,241.596 250.02,241.596ZM414.129,319.841L400.589,319.841L434.346,220.27L447.886,220.27L414.129,319.841ZM493.736,272.858L457.145,260.073L457.145,242.565L512,265.552L512,280.353L457.145,303.403L457.145,285.832L493.736,272.858ZM65.392,270.181L101.29,282.84L101.29,300.475L47.065,277.487L47.065,262.624L101.29,239.636L101.29,257.271L65.392,270.181ZM53.314,43.072C59.711,43.072 63.976,47.338 63.976,53.734C63.976,60.13 59.71,64.397 53.314,64.397C46.918,64.397 42.652,60.131 42.652,53.735C42.652,47.339 46.916,43.072 53.314,43.072ZM138.615,43.072C145.012,43.072 149.277,47.338 149.277,53.734C149.277,60.13 145.011,64.396 138.614,64.396C132.217,64.396 127.952,60.13 127.952,53.734C127.952,47.338 132.218,43.072 138.615,43.072ZM95.964,43.072C102.361,43.072 106.626,47.338 106.626,53.734C106.626,60.13 102.36,64.396 95.964,64.396C89.567,64.396 85.302,60.13 85.302,53.734C85.302,47.338 89.567,43.072 95.964,43.072Z" style="fill-rule:nonzero;"/>
</svg>
