<?xml version="1.0" encoding="UTF-8" standalone="no"?>
<!DOCTYPE svg PUBLIC "-//W3C//DTD SVG 1.1//EN" "http://www.w3.org/Graphics/SVG/1.1/DTD/svg11.dtd">
<svg width="100%" height="100%" viewBox="0 0 648 648" version="1.1" xmlns="http://www.w3.org/2000/svg" xmlns:xlink="http://www.w3.org/1999/xlink" xml:space="preserve" xmlns:serif="http://www.serif.com/" style="fill-rule:evenodd;clip-rule:evenodd;stroke-linejoin:round;stroke-miterlimit:2;">
    <g transform="matrix(1,0,0,1,-377,-216)">
        <g transform="matrix(1,0,0,1,-77.0625,116.029)">
            <path d="M545.978,260.862C542.478,261.328 538.911,261.568 535.288,261.568C490.896,261.568 454.855,225.527 454.855,181.135C454.855,136.743 490.896,100.702 535.288,100.702C579.681,100.702 615.721,136.743 615.721,181.135C615.721,202.106 607.678,221.213 594.509,235.541L625.635,293.818C635.217,291.357 645.26,290.049 655.605,290.049C684.87,290.049 711.708,300.519 732.575,317.915L836.729,234.23C833.816,225.911 832.233,216.974 832.233,207.669C832.233,163.277 868.274,127.236 912.666,127.236C957.058,127.236 993.099,163.277 993.099,207.669C993.099,252.061 957.058,288.102 912.666,288.102C897.55,288.102 883.403,283.923 871.315,276.657L765.61,361.589C770.342,372.236 773.574,383.694 775.035,395.693L949.073,413.557C962.421,387.593 989.479,369.817 1020.66,369.817C1065.05,369.817 1101.09,405.858 1101.09,450.25C1101.09,494.642 1065.05,530.683 1020.66,530.683C982.314,530.683 950.203,503.797 942.163,467.872L769.19,450.117C765.475,460.72 760.317,470.646 753.946,479.666L856.545,591.727C865.515,588.269 875.255,586.374 885.434,586.374C929.826,586.374 965.867,622.415 965.867,666.807C965.867,711.199 929.826,747.24 885.434,747.24C841.042,747.24 805.001,711.199 805.001,666.807C805.001,652.584 808.701,639.218 815.192,627.617L713.07,516.078C695.988,525.391 676.41,530.683 655.605,530.683C647.737,530.683 640.043,529.926 632.593,528.48L593.519,611.344C607.272,625.776 615.721,645.312 615.721,666.807C615.721,711.199 579.681,747.24 535.288,747.24C490.896,747.24 454.855,711.199 454.855,666.807C454.855,622.415 490.896,586.374 535.288,586.374C538.414,586.374 541.497,586.553 544.528,586.9L582.662,506.029C553.871,484.032 535.288,449.352 535.288,410.366C535.288,373.936 551.514,341.266 577.132,319.191L545.978,260.862Z"/>
        </g>
    </g>
</svg>
