<svg height="512pt" viewBox="-45 0 512 512" width="512pt" xmlns="http://www.w3.org/2000/svg"><path d="m422 256c0-94.753906-73.1875-172.734375-166-180.386719v-.613281c0-24.8125 20.1875-45 45-45v-30h-180v30c24.8125 0 45 20.1875 45 45v.613281c-92.8125 7.652344-166 85.632813-166 180.386719s73.1875 172.734375 166 180.386719v.613281c0 24.8125-20.1875 45-45 45v30h180v-30c-24.8125 0-45-20.1875-45-45v-.613281c92.8125-7.652344 166-85.632813 166-180.386719zm-166 89.765625v-179.53125c43.066406 7.175781 76 44.695313 76 89.765625s-32.933594 82.589844-76 89.765625zm-90-179.53125v179.527344c-43.066406-7.171875-76-44.691407-76-89.761719s32.933594-82.589844 76-89.765625zm0 0"/></svg>