<svg xmlns="http://www.w3.org/2000/svg" viewBox="0 0 507.834 507.834">
  <defs/>
  <path d="M273.22 404.022c45.72 0 82.915-37.196 82.915-82.916S318.94 238.19 273.22 238.19s-82.916 37.196-82.916 82.916 37.196 82.916 82.916 82.916zm0-134.613v30c-11.965 0-21.698 9.733-21.698 21.698h-30c-.001-28.506 23.191-51.698 51.698-51.698z"/>
  <path d="M467.458 197.254a75.607 75.607 0 01-42.434-12.974l-50.823-31.207v-42h-30v35.391H202.237v-35.391h-30v42l-60.844 37.551v302.449h356.064c22.264 0 40.376-18.113 40.376-40.376V237.63c.001-22.263-18.111-40.376-40.375-40.376zm-37.541 91.508c-8.409 0-14.636-6.873-15-15-.363-8.101 7.154-15 15-15 8.409 0 14.636 6.873 15 15 .363 8.101-7.154 15-15 15zm15 41c.363 8.101-7.154 15-15 15-8.409 0-14.636-6.873-15-15-.363-8.101 7.154-15 15-15 8.409 0 14.636 6.873 15 15zM273.22 208.191c62.262 0 112.915 50.654 112.915 112.916S335.481 434.022 273.22 434.022s-112.916-50.654-112.916-112.916 50.654-112.915 112.916-112.915zM81.394 197.254h-38.28C19.341 197.254 0 216.595 0 240.368v209.591c0 23.773 19.341 43.114 43.113 43.114h38.28V197.254zM92.138 167.254l53.779-33.191v-12.634H40.697v45.825zM374.201 81.073v-27.27h-.135c-1.699-21.794-21.093-39.041-44.705-39.041H217.077c-23.612 0-43.005 17.247-44.705 39.041h-.135v27.27z"/>
</svg>
