<svg xmlns="http://www.w3.org/2000/svg" viewBox="0 0 107 107"><defs/><path d="M53.686 0c15.941.074 48.784 9.54 49.793 38.562.014.408.02.82.02 1.231a41.29 41.29 0 01-.258 4.483 49.536 49.536 0 01-.882 5.273C98.957 64.91 88.426 81.286 77.785 92.37 72.54 97.835 62.409 107 53.499 107c-.498 0-1.002-.038-1.508-.093a16.75 16.75 0 01-2.445-.469h-.001c-7.804-2.05-15.85-9.4-20.33-14.067C18.157 80.852 7.219 63.622 4.274 47.752l.002-.002c-.582-3.134-.858-6.216-.755-9.19.1-2.874.523-5.549 1.2-8.05H4.72c1.618-5.974 4.748-10.91 8.745-14.94a42.097 42.097 0 015.05-4.326 51.011 51.011 0 016.865-4.208C35.04 2.092 45.837.064 53.153.001L53.5 0h.187zm31.733 31.319c-15.577-12.976-32.51-16.356-56.156-9.883v-.001c-2.18.596-4.415 1.273-6.713 2.037 1.394 3.299 2.883 6.104 4.428 8.554 3.407 5.402 7.08 9.068 10.578 12.437 1.774 1.71 3.502 3.343 5.126 5.09 7.047 7.574 12.126 17.262 10.46 44.49 2.244-8.9 3.212-16.048 3.228-21.968.062-22.672-13.84-27.292-23.388-43.185 18.764-8.955 34.515-8.146 52.437 2.429z"/></svg>
