<svg xmlns="http://www.w3.org/2000/svg" viewBox="0 0 512 512"><defs/><path d="M129.289 319.072l-33.203 33.204 63.639 63.64 33.204-33.204a226.215 226.215 0 01-63.64-63.64zM74.873 373.489L13.18 435.181c-17.574 17.574-17.574 46.066 0 63.639 17.574 17.574 46.066 17.574 63.64 0l61.692-61.691-63.639-63.64zM401.854 110.147C379.188 87.482 349.054 75 317 75c-32.053 0-62.188 12.482-84.853 35.147C209.482 132.812 197 162.947 197 195c0 10.645 1.385 21.075 4.054 31.094l47.356-47.356 31.778 31.777 53.133-53.548h-38.288v-30h90v90h-30v-39.289l-74.761 75.347-31.862-31.861-34.813 34.813a120.717 120.717 0 0018.55 23.876C254.813 302.518 284.948 315 317 315c32.053 0 62.188-12.482 84.853-35.147C424.518 257.188 437 227.053 437 195s-12.482-62.187-35.146-84.853z"/><path d="M317 0C209.305 0 122 87.305 122 195s87.304 195 195 195 195-87.305 195-195S424.697 0 317 0zm106.065 301.065C394.734 329.397 357.067 345 317 345c-40.066 0-77.734-15.603-106.065-43.935C182.604 272.734 167 235.066 167 195s15.603-77.734 43.935-106.065C239.266 60.603 276.935 45 317 45c40.066 0 77.734 15.603 106.065 43.935C451.398 117.266 467 154.934 467 195s-15.602 77.734-43.935 106.065z"/></svg>