<svg xmlns="http://www.w3.org/2000/svg" viewBox="0 0 512 512">
  <defs/>
  <path d="M437 256h30V106H362v30h75zM75 136h75v-30H45v150h30zM465.516 387.243C475.72 376.482 482 361.965 482 346c0-33.084-26.916-60-60-60s-60 26.916-60 60c0 15.965 6.28 30.482 16.484 41.243-17.609 9.768-31.617 25.267-39.484 43.963-7.867-18.696-21.876-34.194-39.484-43.963C309.72 376.482 316 361.965 316 346c0-33.084-26.916-60-60-60s-60 26.916-60 60c0 15.965 6.28 30.482 16.484 41.243-17.609 9.768-31.617 25.267-39.484 43.963-7.867-18.696-21.876-34.194-39.484-43.963C143.72 376.482 150 361.965 150 346c0-33.084-26.916-60-60-60s-60 26.916-60 60c0 15.965 6.28 30.482 16.484 41.243C18.789 402.606 0 432.148 0 466v15h512v-15c0-33.852-18.789-63.394-46.484-78.757zM346 211c0-33.852-18.789-63.394-46.484-78.757C309.72 121.482 316 106.965 316 91c0-33.084-26.916-60-60-60s-60 26.916-60 60c0 15.965 6.28 30.482 16.484 41.243C184.789 147.606 166 177.148 166 211v15h180z"/>
</svg>
