<svg id="Слой_1" enable-background="new 0 0 56 56" height="512" viewBox="0 0 56 56" width="512" xmlns="http://www.w3.org/2000/svg"><g id="icon_52_"><path id="XMLID_11_" d="m39.654 27.198h-2.024c-1.162 0-2.108-.945-2.108-2.107v-.862c0-.054-.051-.093-.093-.111-.057-.023-.117-.03-.153.005l-.613.613c-.821.82-2.159.822-2.982 0l-1.431-1.431c-.821-.822-.821-2.158 0-2.979l.613-.613c.036-.036.028-.095.012-.136-.025-.061-.064-.11-.118-.11h-.863c-1.163 0-2.109-.945-2.109-2.107v-2.022c0-1.162.946-2.107 2.109-2.107h.863c.054 0 .093-.051.111-.094.023-.057.031-.117-.005-.153l-.613-.613c-.822-.822-.822-2.157 0-2.978l1.431-1.431c.821-.82 2.159-.822 2.982 0l.613.613c.037.037.098.029.137.011.058-.024.109-.063.109-.117v-.862c0-1.162.945-2.107 2.108-2.107h2.024c1.162 0 2.109.945 2.109 2.107v.862c0 .054.051.093.093.111.055.024.117.031.153-.005l.613-.613c.797-.796 2.188-.795 2.981 0l1.431 1.43c.398.397.618.927.618 1.489s-.22 1.092-.618 1.49l-.611.612c-.037.037-.03.097-.013.138.023.058.063.109.118.109h.863c1.162 0 2.109.945 2.109 2.107v2.022c0 1.162-.946 2.107-2.109 2.107h-.863c-.055 0-.094.05-.112.093-.023.056-.03.116.005.152l.614.614c.397.397.617.926.617 1.489s-.22 1.092-.618 1.49l-1.431 1.43c-.793.795-2.184.797-2.981 0l-.613-.613c-.036-.036-.098-.029-.138-.011-.057.024-.108.063-.108.117v.862c0 1.164-.946 2.109-2.109 2.109zm-4.308-5.093c.277 0 .559.054.829.165.82.336 1.342 1.103 1.342 1.959v.862c0 .063.051.114.114.114h2.024c.063 0 .115-.051.115-.114v-.862c0-.856.522-1.623 1.33-1.954.815-.334 1.719-.161 2.32.44l.613.613c.039.038.124.036.162 0l1.431-1.431c.038-.038.038-.124 0-.161l-.613-.614c-.601-.598-.776-1.504-.445-2.306.338-.82 1.105-1.341 1.962-1.341h.863c.063 0 .115-.052.115-.115v-2.022c0-.063-.052-.114-.115-.114h-.863c-.856 0-1.624-.521-1.956-1.328-.337-.815-.162-1.72.441-2.32l.61-.611.001-.162-1.431-1.431c-.039-.038-.125-.037-.162 0l-.613.612c-.601.6-1.507.773-2.307.445-.821-.337-1.343-1.104-1.343-1.96v-.862c0-.063-.052-.114-.115-.114h-2.025c-.063 0-.114.051-.114.114v.862c0 .856-.522 1.623-1.33 1.954-.813.336-1.718.161-2.32-.44l-.613-.613c-.046-.045-.119-.043-.163 0l-1.431 1.43c-.044.044-.044.117 0 .162l.613.612c.602.601.776 1.507.444 2.308-.337.818-1.104 1.34-1.96 1.34h-.863c-.063 0-.115.051-.115.114v2.022c0 .063.052.115.115.115h.863c.858 0 1.625.522 1.956 1.33.336.81.162 1.716-.44 2.317l-.613.613c-.045.044-.044.118.001.162l1.43 1.43c.046.045.118.043.163 0l.613-.612c.399-.397.932-.608 1.48-.608z"/><path id="XMLID_8_" d="m38.643 20.73c-2.418 0-4.385-1.966-4.385-4.382s1.967-4.381 4.385-4.381 4.385 1.966 4.385 4.381c0 2.417-1.967 4.382-4.385 4.382zm0-6.77c-1.318 0-2.391 1.072-2.391 2.389s1.073 2.389 2.391 2.389 2.391-1.072 2.391-2.389-1.073-2.389-2.391-2.389z"/><path id="XMLID_7_" d="m28.659 37.068h-1.609c-1.037 0-1.881-.842-1.881-1.879v-.474l-.335.335c-.354.355-.826.551-1.329.551-.503 0-.975-.196-1.33-.551l-1.137-1.137c-.355-.354-.551-.826-.551-1.329 0-.502.196-.974.552-1.329l.334-.334h-.474c-1.037 0-1.881-.842-1.881-1.879v-1.608c0-1.036.844-1.879 1.881-1.879h.474l-.334-.334c-.734-.733-.734-1.925 0-2.658l1.138-1.137c.711-.71 1.95-.711 2.66 0l.334.334v-.473c0-1.036.844-1.879 1.881-1.879h.472c.551 0 .997.446.997.996s-.446.996-.997.996h-.359v.572c0 .764-.465 1.448-1.184 1.743-.723.299-1.53.143-2.066-.394l-.407-.407-.978.976.407.407c.536.537.692 1.344.399 2.056l-.031.07c-.308.684-.975 1.123-1.717 1.123h-.573v1.381h.573c.764 0 1.448.464 1.744 1.183.298.723.142 1.53-.394 2.065l-.407.408.978.977.407-.408c.535-.535 1.343-.692 2.056-.398.73.299 1.195.984 1.195 1.747v.572h1.383v-.572c0-.73.424-1.386 1.089-1.702l.105-.046c.712-.294 1.52-.137 2.056.398l.407.407.978-.977-.407-.407c-.536-.536-.693-1.344-.397-2.057.299-.728.983-1.192 1.748-1.192h.572v-.293c0-.55.446-.996.997-.996s.997.446.997.996v.407c0 1.036-.844 1.879-1.881 1.879h-.473l.335.335c.733.733.733 1.924 0 2.657l-1.138 1.137c-.709.709-1.949.711-2.66-.001l-.334-.334v.474c-.005 1.039-.848 1.882-1.885 1.882z"/><path id="XMLID_4_" d="m27.854 31.926c-2.035 0-3.69-1.654-3.69-3.688s1.656-3.688 3.69-3.688 3.691 1.654 3.691 3.688-1.656 3.688-3.691 3.688zm0-5.383c-.936 0-1.697.761-1.697 1.696 0 .934.761 1.695 1.697 1.695s1.697-.761 1.697-1.695c0-.935-.761-1.696-1.697-1.696z"/><path id="XMLID_3_" d="m21.415 50.5h-5.993c-1.981 0-3.602-1.589-3.653-3.558l-1.023-6.378c-.018-.137-.094-.226-.199-.254l-2.39-.663c-.628-.175-1.15-.61-1.433-1.196-.282-.584-.299-1.262-.047-1.859l2.009-4.752c.645-1.524.956-3.029.925-4.471-.015-.731.013-1.473.083-2.207.858-8.978 8.316-16.114 17.348-16.598.559-.024 1.019.392 1.049.941.03.55-.392 1.019-.942 1.048-8.054.432-14.705 6.794-15.47 14.798-.063.657-.088 1.322-.074 1.975.037 1.725-.328 3.503-1.083 5.288l-2.009 4.752c-.038.09-.018.168.005.217.02.041.068.114.171.142l2.39.663c.879.244 1.522.986 1.638 1.89l1.043 6.573c.002.913.747 1.655 1.66 1.655h5.993c2.271 0 4.119-1.846 4.119-4.115 0-.551.446-.996.997-.996s.997.446.997.996c.002 3.369-2.74 6.109-6.111 6.109z"/><path id="XMLID_2_" d="m40.953 50.5c-.551 0-.997-.446-.997-.996v-7.758c0-1.987.578-3.877 1.672-5.466 1.653-2.401 2.638-5.208 2.846-8.115.039-.549.522-.956 1.065-.923.549.039.963.516.923 1.065-.233 3.261-1.337 6.408-3.191 9.101-.865 1.256-1.321 2.756-1.321 4.338v7.758c0 .55-.446.996-.997.996z"/></g></svg>