<svg xmlns="http://www.w3.org/2000/svg" viewBox="0 0 512 512"><defs/><path d="M332 254.715V91.485L181 8.647v411.016l76.426 37.324C247.844 437.246 242 415.378 242 392c0-61.352 37.117-114.074 90-137.285zm0 0M151 9.426L0 108.004V512l151-90.004zm0 0M362 245.031A150.052 150.052 0 01392 242c49.238 0 92.633 24.172 120 60.93V0L362 90.008zm0 0M437 503.102V482c0-24.813-20.188-45-45-45s-45 20.188-45 45v21.102c13.914 5.64 29.063 8.898 45 8.898s31.086-3.258 45-8.898zm0 0M392 347c-8.277 0-15 6.723-15 15s6.723 15 15 15 15-6.723 15-15-6.723-15-15-15zm0 0"/><path d="M392 272c-66.273 0-120 53.727-120 120 0 37.734 17.77 70.984 45 92.984V482c0-41.352 33.648-75 75-75-24.813 0-45-20.188-45-45s20.188-45 45-45 45 20.188 45 45-20.188 45-45 45c41.352 0 75 33.648 75 75v2.984c27.23-22 45-55.25 45-92.984 0-66.273-53.727-120-120-120zm0 0"/></svg>