<svg xmlns="http://www.w3.org/2000/svg" viewBox="0 0 512 512">
  <defs/>
  <path d="M282.983 127.553l81.847-98.106H0v98.106zm-91.65-64.61h30V93.11h-30zm-64.5 0h30V93.11h-30zm-64.5 0h30V93.11h-30z"/>
  <path d="M403.899 29.447L297.024 157.553H0v325h512V29.447zM234.598 340.5c0 30.603-24.897 55.5-55.5 55.5s-55.5-24.897-55.5-55.5V247h30v93.5c0 14.061 11.439 25.5 25.5 25.5s25.5-11.439 25.5-25.5V247h30zm147.603 56h-34.315L323.4 352.401 298.914 396.5h-34.315l41.644-75-41.644-75h34.315l24.486 44.099 24.486-44.099h34.315l-41.644 75z"/>
</svg>
