<?xml version="1.0" encoding="UTF-8" standalone="no"?>
<!DOCTYPE svg PUBLIC "-//W3C//DTD SVG 1.1//EN" "http://www.w3.org/Graphics/SVG/1.1/DTD/svg11.dtd">
<svg viewBox="0 0 144 144" version="1.1" xmlns="http://www.w3.org/2000/svg" xmlns:xlink="http://www.w3.org/1999/xlink" xml:space="preserve" xmlns:serif="http://www.serif.com/" style="fill-rule:evenodd;clip-rule:evenodd;stroke-linejoin:round;stroke-miterlimit:2;">
    <path d="M72,0c39.738,0 72,32.262 72,72c0,39.738 -32.262,72 -72,72c-39.738,0 -72,-32.262 -72,-72c0,-39.738 32.262,-72 72,-72Zm-59.858,67.838c-0.094,1.376 -0.142,2.764 -0.142,4.162c-0,20.498 10.301,38.609 26.002,49.432l1.071,0.722l0.597,0.388c0.158,0.101 0.315,0.2 0.472,0.299c1.805,1.134 3.675,2.175 5.602,3.116c7.93,3.87 16.841,6.043 26.256,6.043l1.073,-0.01c14.216,-0.253 27.616,-5.525 38.058,-14.505l0.686,-0.6c2.373,-2.107 4.576,-4.397 6.589,-6.85l0.267,-0.328c2.59,-3.206 4.871,-6.706 6.787,-10.468l-53.46,-27.239l0,-60c-31.739,-0 -57.722,24.644 -59.858,55.838Z"/>
</svg>
