<?xml version="1.0" encoding="UTF-8" standalone="no"?>
<!DOCTYPE svg PUBLIC "-//W3C//DTD SVG 1.1//EN" "http://www.w3.org/Graphics/SVG/1.1/DTD/svg11.dtd">
<svg viewBox="0 0 144 144" version="1.1" xmlns="http://www.w3.org/2000/svg" xmlns:xlink="http://www.w3.org/1999/xlink" xml:space="preserve" xmlns:serif="http://www.serif.com/" style="fill-rule:evenodd;clip-rule:evenodd;stroke-linejoin:round;stroke-miterlimit:2;">
    <path d="M72,0c39.738,0 72,32.262 72,72c0,39.738 -32.262,72 -72,72c-39.738,0 -72,-32.262 -72,-72c0,-39.738 32.262,-72 72,-72Zm-43.068,30.226l-0.25,0.258c-0.203,0.212 -0.406,0.427 -0.608,0.644l-0.487,0.529l-0.412,0.459c-0.787,0.884 -1.548,1.791 -2.282,2.72l-0.458,0.586c-0.63,0.819 -1.238,1.652 -1.825,2.501l-0.286,0.417c-0.161,0.237 -0.32,0.475 -0.478,0.714c-0.496,0.755 -0.975,1.52 -1.438,2.297c-0.278,0.467 -0.55,0.939 -0.816,1.414l-0.176,0.317c-4.727,8.577 -7.416,18.433 -7.416,28.918c-0,33.115 26.885,60 60,60c33.115,-0 60,-26.885 60,-60l-60,0l0,-60c-16.897,0 -32.162,6.984 -43.068,18.226Z"/>
</svg>
